<svg width="20" height="20" viewBox="0 0 20 20" fill="none" xmlns="http://www.w3.org/2000/svg">
<g clip-path="url(#clip0_415_800)">
<path d="M14.1667 8.36626C10.9508 8.36626 8.33333 10.9829 8.33333 14.1996C8.33333 17.3979 10.9508 20.0004 14.1667 20.0004C17.3825 20.0004 20 17.3838 20 14.1671C20 10.9688 17.3825 8.36626 14.1667 8.36626ZM14.1667 18.3338C11.8692 18.3338 10 16.4788 10 14.1996C10 11.9021 11.8692 10.0329 14.1667 10.0329C16.4642 10.0329 18.3333 11.8879 18.3333 14.1671C18.3333 16.4646 16.4642 18.3338 14.1667 18.3338ZM15.5892 14.4113C15.915 14.7371 15.915 15.2638 15.5892 15.5896C15.4267 15.7521 15.2133 15.8338 15 15.8338C14.7867 15.8338 14.5733 15.7521 14.4108 15.5896L13.5775 14.7563C13.4208 14.5996 13.3333 14.3879 13.3333 14.1671V12.5004C13.3333 12.0404 13.7058 11.6671 14.1667 11.6671C14.6275 11.6671 15 12.0404 15 12.5004V13.8221L15.5892 14.4113ZM20 5.83376V7.50043C20 7.96043 19.6275 8.33376 19.1667 8.33376C18.7058 8.33376 18.3333 7.96043 18.3333 7.50043V5.83376C18.3333 4.45543 17.2117 3.33376 15.8333 3.33376H4.16667C2.78833 3.33376 1.66667 4.45543 1.66667 5.83376V6.66709H9.16667C9.62667 6.66709 10 7.04043 10 7.50043C10 7.96043 9.62667 8.33376 9.16667 8.33376H1.66667V15.8338C1.66667 17.2121 2.78833 18.3338 4.16667 18.3338H7.5C7.96 18.3338 8.33333 18.7071 8.33333 19.1671C8.33333 19.6271 7.96 20.0004 7.5 20.0004H4.16667C1.86917 20.0004 0 18.1313 0 15.8338V5.83376C0 3.53626 1.86917 1.66709 4.16667 1.66709H5V0.833761C5 0.373761 5.37333 0.000427246 5.83333 0.000427246C6.29333 0.000427246 6.66667 0.373761 6.66667 0.833761V1.66709H13.3333V0.833761C13.3333 0.373761 13.7058 0.000427246 14.1667 0.000427246C14.6275 0.000427246 15 0.373761 15 0.833761V1.66709H15.8333C18.1308 1.66709 20 3.53626 20 5.83376Z" fill="white"/>
</g>
<defs>
<clipPath id="clip0_415_800">
<rect width="20" height="20" fill="white" transform="translate(0 0.000427246)"/>
</clipPath>
</defs>
</svg>
