<svg width="430" height="501" viewBox="0 0 430 501" fill="none" xmlns="http://www.w3.org/2000/svg">
<path d="M-143.434 276.839C-139.327 251.78 -136.074 228.615 -146.655 205.261C-157.774 180.739 -162.196 155.586 -159.006 131.095C-148.645 51.1859 -65.0964 2.55224 14.0935 0.784887C57.7159 -0.193467 101.749 11.5784 138.264 34.3645C168.778 46.0101 213.885 53.7107 238.428 42.8541C261.771 32.5025 287.768 18.774 313.828 26.0643C340.266 33.4809 359.503 56.772 366.105 82.8089C369.864 97.5789 369.769 113.075 372.675 128.066C378.677 159.152 398.008 187.43 424.858 204.346C432.534 209.174 440.746 213.119 448.485 217.853C455.814 222.335 473.534 238.494 489.012 253.579C494.287 257.903 499.341 262.574 504.079 267.623C529.981 295.207 543.911 332.637 542.016 369.435C536.457 476.107 434.745 540.71 334.012 520.197C207.219 494.375 155.561 576.774 82.6318 576.774C9.70282 576.774 -32.5612 531.369 -92.6091 520.417C-125.681 514.39 -156.827 497.442 -174.263 469.322C-215.232 403.11 -154.047 341.568 -143.434 276.839Z" fill="#EDF5FF"/>
<path d="M309.248 530.066C306.974 522.744 304.731 515.422 302.425 508.1C271.943 411.275 233.849 316.753 188.584 225.64C181.571 211.532 174.306 197.362 163.977 185.369C153.648 173.377 139.876 163.593 124.082 160.847C112.047 158.764 99.6964 160.816 87.7563 163.467C78.1537 165.613 68.4879 168.201 59.9908 173.093C50.1671 178.742 42.3334 187.263 36.079 196.542C9.41916 236.086 10.6827 287.024 12.9254 334.363C16.3369 406.383 19.7167 478.434 23.1281 550.453L309.248 530.066Z" fill="#0F67FE"/>
<path d="M138.265 143.048C144.046 145.1 149.7 147.467 155.196 150.181C179.993 162.458 201.061 177.038 220.677 193.355C184.225 255.875 161.672 326.506 144.836 396.348C135.201 312.114 130.716 227.881 138.265 143.048Z" fill="white"/>
<path d="M-52.4907 285.004C-50.5323 234.445 -28.4526 189.188 12.9586 158.291C48.8421 131.497 96.8867 128.499 138.266 143.079C130.685 227.881 135.171 312.114 144.837 396.347C161.673 326.505 184.226 255.874 220.678 193.354C243.232 212.101 263.89 233.12 286.033 255.527C310.008 279.797 343.996 292.137 377.889 296.492C401.169 299.49 427.577 298.007 444.034 281.343C444.887 291.505 445.771 301.668 446.624 311.83C448.519 333.985 450.414 356.424 447.003 378.39C443.623 400.387 434.4 422.226 417.405 436.681C393.652 456.879 358.526 459.088 328.644 450.125C298.763 441.162 272.798 422.636 247.496 404.426L72.1853 502.42C54.1488 487.618 30.9004 479.949 13.7799 464.138C3.22971 454.386 -4.47766 442.014 -11.6796 429.611C-38.1184 383.944 -54.5755 339.161 -52.4907 285.004Z" fill="#2BAFFC"/>
<path d="M295.928 331.858C288.503 311.243 315.324 282.724 355.834 268.158C396.345 253.593 435.204 258.496 442.629 279.111C450.055 299.726 423.234 328.245 382.723 342.811C342.213 357.376 303.353 352.472 295.928 331.858Z" fill="#242E49"/>
<path d="M430.071 303.214C426.028 285.036 421.953 266.857 417.91 248.679C417.183 245.428 416.457 242.146 416.71 238.832C416.994 234.793 418.7 231.005 420.405 227.313C424.417 218.539 428.397 209.797 432.409 201.024C436.389 192.313 440.432 182.75 438.063 173.503C435.662 164.256 404.927 165.803 397.725 172.146C442.201 91.6687 361.431 113.256 362.158 122.566C363.643 142.449 416.678 111.141 363.39 166.182C310.639 199.603 323.21 153.652 308.459 162.552C285.432 176.438 289.633 206.547 291.876 228.228C293.36 242.746 297.214 256.916 301.036 271.023C306.343 290.654 309.186 302.457 313.703 319.562C315.629 326.884 322.895 335.279 330.444 336.1C361.368 339.571 407.897 322.34 430.071 303.214Z" fill="#A6CBFF"/>
<path d="M18.3903 471.807C16.4634 429.959 14.5366 388.11 12.6098 346.231C12.515 344.369 15.421 344.369 15.5158 346.231C17.4426 388.079 19.3695 429.927 21.2963 471.807C21.3595 473.669 18.485 473.669 18.3903 471.807Z" fill="#242E49"/>
<path d="M12.8929 374.005C9.54465 365.799 5.05922 358.225 -0.500189 351.345C-1.66893 349.924 0.384261 347.841 1.553 349.293C7.45987 356.584 12.1664 364.537 15.7042 373.216C16.3675 374.951 13.5879 375.709 12.8929 374.005Z" fill="#242E49"/>
<path d="M297.719 327.515C303.721 344.873 308.364 362.61 311.681 380.662C311.996 382.493 309.217 383.25 308.901 381.42C305.616 363.367 300.941 345.631 294.939 328.273C294.307 326.506 297.087 325.748 297.719 327.515Z" fill="#242E49"/>
<path d="M275.262 427.97C255.046 412.442 235.967 395.526 218.151 377.253C216.856 375.927 218.909 373.876 220.205 375.202C237.83 393.285 256.688 410.075 276.715 425.445C278.168 426.581 276.746 429.106 275.262 427.97Z" fill="#242E49"/>
<path d="M324.695 196.479C333.918 206.294 346.301 220.717 350.596 233.467C359.662 260.293 337.772 261.681 326.021 259.946C323.937 259.63 317.524 262.407 316.071 261.839C310.385 259.567 306.627 266.005 303.626 260.671C301.983 257.768 301.478 254.359 301.036 251.046C300.593 247.858 300.151 244.702 299.709 241.515C298.856 235.36 297.972 229.143 298.73 222.989C299.456 216.835 302.015 210.649 306.848 206.736C311.144 203.296 316.798 201.97 322.294 201.686L324.695 196.479Z" fill="#A6CBFF"/>
<path d="M389.04 182.309C396.558 174.419 403.823 166.308 411.404 158.513C418.922 150.78 424.702 143.616 428.524 133.517C429.756 130.235 431.525 126.953 434.526 125.185C442.17 120.736 446.245 129.509 446.182 135.632C446.055 148.698 440.401 161.353 433.199 172.052C426.566 181.898 418.227 190.483 409.761 198.815C425.018 184.36 436.295 164.509 454.079 152.737C455.942 151.506 461.502 152.169 463.46 152.643C467.598 153.652 466.808 160.88 464.976 165.708C455.784 189.915 438.948 208.567 420.975 225.041L389.04 182.309Z" fill="#A6CBFF"/>
<path d="M306.089 164.224C311.712 160.721 319.482 157.154 325.736 154.882C330.348 153.209 335.75 152.357 340.614 152.42C345.163 152.484 354.039 155.324 348.227 161.068C340.993 168.2 332.275 173.818 322.767 177.384L306.089 164.224Z" fill="#A6CBFF"/>
<path d="M305.363 162.962C312.881 158.386 321.536 153.967 330.159 152.042C335.908 150.748 344.311 149.549 349.365 153.589C359.82 161.92 328.422 176.659 323.115 178.742C321.378 179.405 320.62 176.627 322.357 175.965C328.675 173.503 334.645 170.252 340.046 166.181C342.289 164.508 345.574 162.362 347.185 160.027C349.996 155.924 346.364 154.725 342.921 154.094C330.76 151.884 316.798 159.364 306.816 165.455C305.237 166.433 303.784 163.94 305.363 162.962Z" fill="#242E49"/>
<path d="M349.3 156.397C343.993 161.163 336.128 160.815 331.579 155.198C330.411 153.778 332.464 151.695 333.633 153.146C337.17 157.502 343.014 158.164 347.247 154.346C348.637 153.115 350.69 155.135 349.3 156.397Z" fill="#242E49"/>
<path d="M221.531 121.714C235.114 115.591 236.693 94.6353 226.364 83.9049C216.035 73.1746 198.535 72.0384 184.668 77.5614C177.182 80.5596 170.17 85.262 162.147 86.1457C147.174 87.8184 134.413 76.1412 120.261 71.0285C105.194 65.5687 87.5052 67.9988 74.4911 77.2774C66.0573 83.2737 59.3607 92.0158 49.6633 95.7083C38.9551 99.7795 27.0151 96.8445 15.8331 94.3197C-3.53009 89.9644 -26.5574 88.0077 -40.5191 102.052C-48.416 110.005 -51.701 121.745 -59.9138 129.383C-71.7907 140.397 -89.9536 139.766 -106.158 139.356C-122.362 138.945 -141.125 140.744 -150.286 154.062C-162.7 172.146 -148.58 197.678 -155.561 218.476C-160.899 234.319 -177.135 243.629 -186.833 257.295C-203.763 281.091 -195.993 318.521 -170.976 333.669C-163.458 338.214 -154.929 340.865 -146.306 342.696C-132.723 345.599 -118.414 346.609 -105.021 342.916C-91.6277 339.224 -79.2138 330.324 -73.686 317.605C-68.1898 304.982 -68.3477 287.908 -56.1549 281.469C-52.0801 279.292 -47.2788 278.882 -42.667 278.818C-30.6006 278.598 -18.471 280.365 -6.43614 279.166C5.59871 277.966 18.0758 273.201 24.646 263.07C34.3434 248.142 28.6892 225.956 40.9452 213.048C52.7589 200.613 74.0805 204.211 88.358 194.711C106.3 182.75 107.121 154.599 125 142.543C136.371 134.842 151.47 135.979 164.926 138.819C172.033 140.334 180.436 141.912 185.806 137.02C188.585 134.495 189.849 130.803 191.807 127.615C197.43 118.558 209.781 114.297 219.825 117.926L221.531 121.714Z" fill="#242E49"/>
<path d="M228.038 96.3385C231.229 82.894 215.972 74.215 204.979 71.8796C191.965 69.1023 180.91 73.2051 169.507 79.0752C161.231 83.3358 152.955 85.8922 143.7 83.3043C135.613 81.0635 128.569 76.1717 121.493 71.8796C113.218 66.8616 104.405 62.1907 94.4229 62.885C85.0099 63.5162 76.5444 68.3765 68.7738 73.3314C53.8014 82.9255 39.5238 94.1608 20.7924 93.3718C0.0709839 92.5197 -22.7668 78.8859 -42.9828 88.7957C-52.9961 93.719 -59.3452 103.155 -61.1141 113.98C-62.6619 123.322 -63.7674 131.591 -71.7591 137.619C-87.774 149.706 -108.653 143.52 -126.911 143.868C-139.135 144.088 -150.728 148.286 -157.74 158.764C-163.963 168.042 -163.584 178.931 -163.047 189.629C-162.51 200.044 -161.91 211.532 -168.67 220.274C-174.103 227.312 -183.705 231.288 -192.55 229.521C-200.194 228.006 -207.585 220.211 -202.089 212.542C-196.909 205.315 -186.359 208.628 -184.716 216.834C-184.369 218.664 -187.148 219.422 -187.496 217.591C-188.286 213.678 -192.108 210.238 -196.309 211.595C-201.205 213.173 -202.31 219.232 -199.215 222.862C-195.361 227.375 -188.254 227.659 -182.947 226.333C-170.975 223.335 -166.016 212.163 -165.669 200.802C-165.385 191.176 -167.122 181.55 -165.764 171.956C-164.563 163.592 -160.52 155.892 -154.171 150.274C-138.219 136.199 -117.182 142.763 -98.1031 142.384C-89.0059 142.195 -78.8031 140.238 -71.8539 133.926C-63.4832 126.289 -65.6627 114.959 -61.8722 105.27C-55.2704 88.4801 -38.3711 81.0635 -21.1243 82.7993C-1.28729 84.7876 18.2654 95.1076 38.1656 87.8489C54.1804 82.0103 66.3732 69.0708 82.1985 62.8219C89.4321 59.9815 97.2026 59.0347 104.784 60.8968C113.06 62.9166 120.293 67.7453 127.464 72.1321C136.087 77.4341 145.784 83.178 156.335 81.0951C168.053 78.7912 177.151 70.1754 189.217 68.4711C205.422 66.1673 235.935 75.2249 230.755 97.0643C230.407 98.8948 227.596 98.1374 228.038 96.3385Z" fill="#242E49"/>
<path d="M152.765 183.005L214.297 85.8955C214.297 85.8955 249.107 131.531 228.954 169.813L209.844 156.116L202.452 202.036C199.736 218.889 182.015 228.862 166.19 222.455C165.905 222.36 165.653 222.234 165.368 222.139C149.89 215.764 143.826 197.081 152.765 183.005Z" fill="#A6CBFF"/>
<path d="M184.888 126.955C178.189 126.955 172.758 121.53 172.758 114.837C172.758 108.143 178.189 102.718 184.888 102.718C191.587 102.718 197.017 108.143 197.017 114.837C197.017 121.53 191.587 126.955 184.888 126.955Z" fill="#A6CBFF"/>
<path d="M187.603 120.137C184.823 116.666 182.043 113.194 179.201 109.786C178.032 108.365 180.053 106.314 181.254 107.734C184.097 111.143 186.876 114.614 189.656 118.086C190.793 119.538 188.74 121.589 187.603 120.137Z" fill="#242E49"/>
<path d="M209.843 156.115L202.83 199.416L196.45 145.038L209.843 156.115Z" fill="#242E49"/>
<path d="M228.984 111.143C232.901 117.992 236.47 125.44 239.028 132.92C239.376 133.993 238.27 134.971 237.26 134.687C234.259 133.866 231.258 133.077 228.289 132.257C226.488 131.783 227.246 128.975 229.047 129.48C232.048 130.3 235.048 131.089 238.018 131.91C237.418 132.509 236.817 133.109 236.249 133.677C233.785 126.45 230.279 119.223 226.488 112.595C225.541 110.986 228.068 109.534 228.984 111.143Z" fill="#242E49"/>
<path d="M380.194 117.137C376.056 121.619 369.991 123.418 364.053 122.029C362.252 121.587 363.01 118.81 364.811 119.252C369.77 120.419 374.698 118.873 378.141 115.117C379.404 113.697 381.426 115.749 380.194 117.137Z" fill="#242E49"/>
<path d="M437.336 168.138C427.513 181.929 414.688 193.102 399.652 200.928C398.01 201.781 396.525 199.287 398.199 198.435C412.793 190.861 425.301 180.067 434.841 166.686C435.915 165.171 438.41 166.623 437.336 168.138Z" fill="#242E49"/>
<path d="M324.443 191.967C338.657 204.938 346.27 223.779 344.943 242.968C344.817 244.798 341.911 244.83 342.037 242.968C343.301 224.474 336.099 206.485 322.39 193.987C321 192.756 323.053 190.705 324.443 191.967Z" fill="#242E49"/>
<path d="M385.849 211.722C378.331 216.235 373.119 223.147 369.234 230.879C365.159 239.021 361.116 248.521 359.663 257.547C359.379 259.378 356.568 258.589 356.883 256.79C358.431 247.006 362.885 236.654 367.528 227.912C371.54 220.338 377.005 213.679 384.396 209.229C385.976 208.282 387.46 210.775 385.849 211.722Z" fill="#242E49"/>
<path d="M223.519 199.54C216.886 235.518 210.252 271.496 203.619 307.475C203.461 308.39 202.229 308.8 201.503 308.327C193.195 303.119 184.919 297.912 176.612 292.673C175.032 291.695 176.485 289.17 178.065 290.18C186.372 295.387 194.648 300.595 202.956 305.834C202.261 306.118 201.534 306.402 200.839 306.686C207.473 270.707 214.106 234.729 220.739 198.751C221.055 196.952 223.867 197.71 223.519 199.54Z" fill="#242E49"/>
<path d="M134.125 258.178C127.145 259.725 120.164 261.24 113.183 262.786C110.751 263.323 104.338 266.163 102.727 262.66C102.064 261.208 102.854 259.283 103.233 257.894C104.086 254.549 105.033 251.235 105.918 247.89C107.75 240.915 109.582 233.94 111.351 226.934C118.426 198.972 124.902 170.852 130.746 142.606C131.125 140.776 133.904 141.565 133.525 143.364C128.503 167.602 123.038 191.776 117.1 215.825C114.162 227.692 111.13 239.526 107.971 251.361C107.687 252.434 104.907 259.567 105.539 260.451C106.771 262.25 113.562 259.725 115.173 259.378C121.238 258.052 127.334 256.695 133.399 255.37C135.168 254.991 135.926 257.768 134.125 258.178Z" fill="#242E49"/>
<path d="M184.479 299.205C187.574 309.462 190.67 319.751 193.766 330.008C195.187 334.773 194.966 334.457 191.618 338.245C188.396 341.937 185.237 345.661 182.141 349.48C169.443 365.165 158.103 381.923 148.027 399.439C147.111 401.049 144.584 399.597 145.531 397.987C154.723 382.018 164.958 366.712 176.329 352.194C179.172 348.565 182.078 344.998 185.047 341.464C186.532 339.696 188.048 337.961 189.564 336.225C191.618 333.889 191.586 332.848 190.701 329.881C187.701 319.908 184.7 309.935 181.699 299.994C181.162 298.164 183.942 297.406 184.479 299.205Z" fill="#242E49"/>
<path d="M145.784 401.303C135.108 378.359 125.789 354.847 117.924 330.798C115.966 324.802 114.102 318.774 112.301 312.714C111.354 309.527 110.469 306.339 109.585 303.152C109.111 301.416 107.816 298.954 108.164 297.155C108.606 294.694 110.912 291.727 111.922 289.392C113.218 286.33 114.323 283.174 115.239 279.955C117.103 273.486 118.082 266.826 118.366 260.136C118.461 258.274 121.336 258.274 121.272 260.136C120.767 271.213 118.366 282.101 113.818 292.232C112.428 295.357 111.164 297.155 111.891 300.627C112.554 303.846 113.691 307.034 114.607 310.19C116.376 316.249 118.24 322.277 120.167 328.305C128.064 352.701 137.477 376.56 148.311 399.82C149.038 401.524 146.542 402.976 145.784 401.303Z" fill="#242E49"/>
<path d="M330.065 378.296C326.157 378.296 322.989 375.131 322.989 371.226C322.989 367.322 326.157 364.157 330.065 364.157C333.973 364.157 337.141 367.322 337.141 371.226C337.141 375.131 333.973 378.296 330.065 378.296Z" fill="#FFCD62"/>
<path d="M332.624 404.648C328.716 404.648 325.548 401.483 325.548 397.578C325.548 393.674 328.716 390.509 332.624 390.509C336.531 390.509 339.699 393.674 339.699 397.578C339.699 401.483 336.531 404.648 332.624 404.648Z" fill="#FFCD62"/>
<path d="M343.206 257.801C351.198 216.836 349.745 174.356 344.059 133.171C343.49 128.942 349.997 127.111 350.566 131.372C357.894 184.771 358.842 243.977 339.984 295.546C338.026 294.189 336.067 292.8 334.109 291.412C338.026 280.461 340.995 269.162 343.206 257.801Z" fill="#242E49"/>
<path d="M149.45 260.136C149.924 255.876 156.684 255.844 156.21 260.136C153.083 287.278 152.072 316.313 161.769 342.35C170.266 365.199 190.23 385.082 214.805 389.752C230.851 392.814 247.751 387.385 261.902 380.095C276.274 372.71 289.162 362.737 299.965 350.744C315.474 333.544 326.561 313.094 334.174 291.412C336.132 292.801 338.091 294.158 340.049 295.546C333.1 314.577 323.434 332.566 310.42 348.851C290.299 373.973 258.048 396.948 224.628 397.295C197.937 397.579 172.541 378.58 160.443 355.731C145.06 326.822 145.818 291.728 149.45 260.136Z" fill="#242E49"/>
<path d="M225.508 167.854C221.465 210.964 193.321 245.175 154.531 263.038C153.015 263.732 150.709 263.606 149.919 261.839C128.724 213.615 140.254 154.851 176.485 116.885C179.485 113.729 184.255 118.494 181.254 121.65C147.298 157.218 135.831 213.079 155.732 258.43C154.184 258.02 152.636 257.61 151.12 257.231C187.603 240.441 214.927 208.661 218.749 167.854C219.159 163.593 225.919 163.53 225.508 167.854Z" fill="#242E49"/>
<path d="M189.059 111.33C191.175 114.613 190.954 119.094 188.996 122.408C187.101 125.627 183.31 128.12 179.456 127.836C177.087 127.678 174.15 126.637 173.139 124.238C171.717 120.861 170.675 117.8 171.338 114.076C171.97 110.478 174.624 107.417 178.161 106.439C180.941 105.681 184.037 106.155 186.469 107.733C188.301 108.9 189.691 110.636 190.291 112.751C190.986 115.118 190.417 117.2 189.438 119.378C188.743 120.925 186.69 122.25 185.111 122.692C183.373 123.165 181.067 122.944 179.551 121.966C175.982 119.662 175.287 115.78 176.961 112.088C176.993 112.025 177.024 111.93 177.056 111.867C176.803 112.467 176.55 113.066 176.298 113.666C176.329 113.603 176.329 113.508 176.361 113.445C176.266 114.076 176.203 114.739 176.108 115.37C176.14 114.644 176.298 115.086 176.55 116.632C176.645 117.674 177.056 118.558 177.845 119.252C178.067 119.441 179.646 120.42 178.572 119.883C179.172 120.136 179.772 120.388 180.372 120.641C180.057 120.514 179.741 120.42 179.393 120.388C180.025 120.483 180.688 120.546 181.32 120.641C179.772 120.514 182.931 120.23 181.92 120.514C182.805 120.293 183.594 119.852 184.258 119.22C185.047 118.116 185.237 117.926 184.889 118.621C185.142 118.021 185.395 117.421 185.648 116.822C185.521 117.2 185.426 117.548 185.395 117.926C185.49 117.295 185.553 116.632 185.648 116.001C185.616 116.317 185.742 117.453 185.553 116.254C185.363 114.96 185.584 116.317 185.648 116.506C185.805 117.106 186.658 119.22 185.774 117.137C183.658 115.938 181.573 114.739 179.456 113.54C180.278 113.603 180.467 113.256 178.73 113.697C177.53 114.265 177.182 114.392 177.688 114.139C178.193 113.855 177.877 114.108 176.803 114.865C176.866 114.802 176.961 114.739 177.024 114.676C177.53 114.139 177.34 114.423 176.424 115.496C176.519 115.244 176.74 114.991 176.835 114.739C176.582 115.338 176.329 115.938 176.077 116.538C176.234 116.159 176.329 115.812 176.392 115.433C176.298 116.064 176.234 116.727 176.14 117.358C176.203 116.601 175.887 116.222 176.329 118.084C176.077 117.011 177.214 119.757 176.582 118.747C174.529 115.559 175.887 110.636 179.235 108.9C182.773 106.786 186.848 107.922 189.059 111.33Z" fill="#242E49"/>
<path d="M348.006 149.991C333.858 149.991 322.389 138.546 322.389 124.428C322.389 110.309 333.858 98.864 348.006 98.864C362.154 98.864 373.624 110.309 373.624 124.428C373.624 138.546 362.154 149.991 348.006 149.991Z" fill="#242E49"/>
<path d="M323.842 124.427C324.189 137.588 334.582 148.507 348.006 148.539C361.147 148.57 372.202 137.525 372.171 124.427C372.139 111.267 361.21 100.315 348.006 100.315C334.582 100.284 324.158 111.267 323.842 124.427C323.81 126.289 320.904 126.289 320.936 124.427C321.22 113.35 327.727 103.314 338.246 99.2424C348.954 95.1081 361.494 98.2956 368.823 107.132C384.648 126.163 367.496 155.419 343.11 150.969C330.191 148.602 321.283 137.304 320.967 124.427C320.904 122.565 323.779 122.565 323.842 124.427Z" fill="#242E49"/>
<path d="M348.008 137.304C340.89 137.304 335.12 131.539 335.12 124.427C335.12 117.316 340.89 111.551 348.008 111.551C355.125 111.551 360.896 117.316 360.896 124.427C360.896 131.539 355.125 137.304 348.008 137.304Z" fill="white"/>
<path d="M429.945 45.3388C425.302 51.3036 421.195 57.6156 417.5 64.2116C415.383 67.9987 409.539 64.5903 411.656 60.8031C415.636 53.7021 420.153 47.0114 425.175 40.5732C427.829 37.1648 432.598 41.9619 429.945 45.3388Z" fill="#FFCD62"/>
<path d="M401.103 31.0104C399.113 38.1745 397.628 45.4333 396.712 52.7867C396.207 57.0473 389.447 57.0788 389.953 52.7867C390.932 44.8021 392.416 36.9752 394.564 29.2115C395.733 25.0456 402.24 26.813 401.103 31.0104Z" fill="#FFCD62"/>
<path d="M217.139 119.064C213.538 119.064 209.906 119.064 206.305 119.064C204.441 119.064 204.441 116.192 206.305 116.192C209.906 116.192 213.538 116.192 217.139 116.192C219.003 116.192 219.003 119.064 217.139 119.064Z" fill="#242E49"/>
<path d="M218.784 111.173C214.835 108.964 211.045 106.471 207.444 103.725C207.917 103.725 208.423 103.725 208.897 103.725C208.834 103.757 208.739 103.82 208.676 103.851C208.928 103.441 209.149 103.031 209.402 102.589C209.149 102.305 208.897 102.053 208.676 101.8C210.476 102.273 209.718 105.051 207.917 104.577C206.243 104.136 206.054 102.084 207.475 101.232C207.886 100.98 208.549 100.948 208.928 101.232C212.529 103.978 216.32 106.439 220.268 108.68C221.879 109.595 220.426 112.089 218.784 111.173Z" fill="#242E49"/>
<path d="M226.616 145.73C223.236 149.675 216.603 146.898 217.171 141.69C217.361 139.86 220.267 139.828 220.077 141.69C219.762 144.404 222.762 145.793 224.563 143.679C225.763 142.29 227.816 144.341 226.616 145.73Z" fill="#242E49"/>
</svg>
