<svg width="147" height="134" viewBox="0 0 147 134" fill="none" xmlns="http://www.w3.org/2000/svg">
<rect x="24.8892" y="11.2415" width="89.2216" height="89.2216" rx="44.6108" fill="#2BAFFC"/>
<g style="mix-blend-mode:multiply">
<rect x="19" width="101" height="101" rx="50.5" fill="#2BAFFC"/>
</g>
<mask id="path-3-outside-1_38_271" maskUnits="userSpaceOnUse" x="-1" y="43.8291" width="149" height="61" fill="black">
<rect fill="white" x="-1" y="43.8291" width="149" height="61"/>
<path d="M16.702 103.168C15.0325 103.168 13.8368 102.807 13.1149 102.085C12.393 101.318 12.032 99.8963 12.032 97.8207C12.032 96.422 12.1674 94.6397 12.4381 92.4739C12.7539 90.263 13.2503 87.2399 13.9271 83.4046C15.1002 76.3207 16.0252 70.1843 16.702 64.9954C17.1081 61.7467 17.3111 59.0395 17.3111 56.8737C17.3111 54.8432 16.5666 53.828 15.0777 53.828C13.9045 53.828 12.4832 54.4371 10.8138 55.6554C9.18941 56.8285 7.38458 58.7236 5.39927 61.3406C4.76758 62.1979 4.06821 62.6266 3.30116 62.6266C2.66947 62.6266 2.10546 62.3333 1.60913 61.7467C1.15792 61.115 0.932319 60.4156 0.932319 59.6486C0.932319 58.9267 1.06768 58.2047 1.33841 57.4828C1.65425 56.7157 2.15058 55.8584 2.82739 54.9109C4.99318 51.8878 7.40714 49.5641 10.0693 47.9398C12.7314 46.2703 15.3935 45.4356 18.0556 45.4356C20.5373 45.4356 22.4323 46.2252 23.7408 47.8044C25.0945 49.3836 25.7713 51.6848 25.7713 54.7079C25.7713 55.9261 25.6585 57.37 25.4329 59.0395C25.2073 60.6638 25.0042 61.9949 24.8237 63.0326C24.6432 64.0704 24.5079 64.7923 24.4176 65.1984C26.9895 57.8438 29.8773 52.7226 33.0808 49.8348C36.2844 46.902 39.8038 45.4356 43.6391 45.4356C46.5719 45.4356 48.8731 46.4733 50.5425 48.5489C52.2571 50.6244 53.1144 53.5573 53.1144 57.3474C53.1144 58.8364 52.9114 60.6864 52.5053 62.8973C54.7613 56.6706 57.4009 52.2037 60.424 49.4964C63.4471 46.7892 66.9213 45.4356 70.8469 45.4356C74.0053 45.4356 76.4193 46.4508 78.0887 48.4812C79.8033 50.5116 80.6606 53.3542 80.6606 57.009C80.6606 58.9943 80.3673 61.4083 79.7807 64.2509L75.6522 83.6077C75.201 85.8637 74.9754 87.8039 74.9754 89.4283C74.9754 91.3233 75.404 92.7446 76.2613 93.6922C77.1638 94.6397 78.4046 95.1135 79.9838 95.1135C81.4728 95.1135 82.9166 94.6171 84.3154 93.6245C85.7592 92.6318 87.4513 90.9849 89.3915 88.6838C89.9329 88.0521 90.542 87.7362 91.2188 87.7362C91.8054 87.7362 92.2566 88.007 92.5725 88.5484C92.9334 89.0898 93.1139 89.8343 93.1139 90.7819C93.1139 92.5416 92.6853 93.9403 91.828 94.9781C89.4817 97.8207 87.158 99.8963 84.8568 101.205C82.5557 102.513 80.1417 103.168 77.615 103.168C73.7797 103.168 70.7792 102.039 68.6134 99.7835C66.4476 97.4823 65.3647 94.4141 65.3647 90.5788C65.3647 87.9167 65.9061 84.0589 66.989 79.0054L69.6963 66.6197C69.7865 66.2136 69.9444 65.4917 70.17 64.4539C70.3956 63.4162 70.5761 62.4461 70.7115 61.5437C70.8468 60.5961 70.9145 59.6711 70.9145 58.7687C70.9145 57.1895 70.5987 56.0164 69.967 55.2493C69.3804 54.4371 68.5231 54.0311 67.3951 54.0311C65.2744 54.0311 63.041 55.4072 60.6947 58.1596C58.3935 60.8668 56.1826 65.3789 54.0619 71.6958C51.9864 78.0127 50.2944 86.2247 48.9859 96.3317C48.67 99.039 48.106 100.866 47.2938 101.814C46.5268 102.716 45.2634 103.168 43.5037 103.168C41.9696 103.168 40.8416 102.807 40.1196 102.085C39.4428 101.363 39.1044 100.009 39.1044 98.0237C39.1044 96.1738 39.3526 93.7598 39.8489 90.7819C40.3453 87.7588 40.9769 84.2168 41.744 80.1559C43.8195 69.2367 44.8573 62.1979 44.8573 59.0395C44.8573 57.3249 44.5189 56.0615 43.8421 55.2493C43.2104 54.4371 42.2403 54.0311 40.9318 54.0311C38.7209 54.0311 36.4423 55.2944 34.096 57.8212C31.7498 60.3028 29.4486 64.7472 27.1926 71.1544C24.9817 77.5164 23.1317 86.1344 21.6427 97.0085C21.3269 99.3097 20.8531 100.911 20.2214 101.814C19.6349 102.716 18.4617 103.168 16.702 103.168ZM104.716 103.168C101.603 103.168 98.7826 102.4 96.2558 100.866C93.7742 99.3322 91.8114 97.1213 90.3675 94.2336C88.9237 91.3008 88.2018 87.849 88.2018 83.8784C88.2018 77.0201 89.6682 70.6806 92.601 64.86C95.5339 58.9943 99.8655 54.3018 105.596 50.7824C111.326 47.2178 118.207 45.4356 126.239 45.4356C128.314 45.4356 130.525 45.5935 132.871 45.9093C135.263 46.2252 137.428 46.6989 139.369 47.3306C140.632 47.6916 141.264 48.594 141.264 50.0379C141.264 51.211 140.812 52.3165 139.91 53.3543C139.053 54.392 138.038 54.9109 136.864 54.9109C136.503 54.9109 136.233 54.8884 136.052 54.8432C133.706 54.3018 131.698 53.9183 130.029 53.6927C128.359 53.4219 126.599 53.2866 124.75 53.2866C119.019 53.2866 114.146 54.6853 110.13 57.4828C106.115 60.2352 103.114 63.8899 101.129 68.4471C99.1435 73.0043 98.1509 77.9225 98.1509 83.2016C98.1509 87.0369 98.8954 90.0148 100.384 92.1355C101.918 94.211 103.904 95.2488 106.34 95.2488C109.093 95.2488 111.507 94.1208 113.582 91.8648C115.658 89.6087 117.553 85.954 119.267 80.9004C120.982 75.8469 122.674 68.9886 124.343 60.3254C124.614 59.062 125.156 58.2047 125.968 57.7535C126.78 57.3023 127.863 57.0767 129.216 57.0767C132.42 57.0767 134.022 58.1145 134.022 60.19C134.022 60.551 133.954 61.0022 133.819 61.5437C132.646 65.9204 131.563 70.7708 130.57 76.0951C129.623 81.3742 129.149 85.3899 129.149 88.1423C129.149 90.5788 129.51 92.3611 130.232 93.4891C130.954 94.572 132.059 95.1135 133.548 95.1135C134.992 95.1135 136.368 94.6397 137.677 93.6922C138.985 92.6995 140.632 91.03 142.617 88.6838C143.159 88.0521 143.768 87.7362 144.445 87.7362C145.031 87.7362 145.482 88.007 145.798 88.5484C146.159 89.0898 146.34 89.8343 146.34 90.7819C146.34 92.5416 145.911 93.9403 145.054 94.9781C142.843 97.6402 140.677 99.6707 138.556 101.069C136.436 102.468 133.841 103.168 130.773 103.168C127.615 103.168 125.065 102.265 123.125 100.46C121.185 98.6103 119.967 96.0159 119.47 92.6769C116.131 99.6707 111.213 103.168 104.716 103.168Z"/>
</mask>
<path d="M16.702 103.168C15.0325 103.168 13.8368 102.807 13.1149 102.085C12.393 101.318 12.032 99.8963 12.032 97.8207C12.032 96.422 12.1674 94.6397 12.4381 92.4739C12.7539 90.263 13.2503 87.2399 13.9271 83.4046C15.1002 76.3207 16.0252 70.1843 16.702 64.9954C17.1081 61.7467 17.3111 59.0395 17.3111 56.8737C17.3111 54.8432 16.5666 53.828 15.0777 53.828C13.9045 53.828 12.4832 54.4371 10.8138 55.6554C9.18941 56.8285 7.38458 58.7236 5.39927 61.3406C4.76758 62.1979 4.06821 62.6266 3.30116 62.6266C2.66947 62.6266 2.10546 62.3333 1.60913 61.7467C1.15792 61.115 0.932319 60.4156 0.932319 59.6486C0.932319 58.9267 1.06768 58.2047 1.33841 57.4828C1.65425 56.7157 2.15058 55.8584 2.82739 54.9109C4.99318 51.8878 7.40714 49.5641 10.0693 47.9398C12.7314 46.2703 15.3935 45.4356 18.0556 45.4356C20.5373 45.4356 22.4323 46.2252 23.7408 47.8044C25.0945 49.3836 25.7713 51.6848 25.7713 54.7079C25.7713 55.9261 25.6585 57.37 25.4329 59.0395C25.2073 60.6638 25.0042 61.9949 24.8237 63.0326C24.6432 64.0704 24.5079 64.7923 24.4176 65.1984C26.9895 57.8438 29.8773 52.7226 33.0808 49.8348C36.2844 46.902 39.8038 45.4356 43.6391 45.4356C46.5719 45.4356 48.8731 46.4733 50.5425 48.5489C52.2571 50.6244 53.1144 53.5573 53.1144 57.3474C53.1144 58.8364 52.9114 60.6864 52.5053 62.8973C54.7613 56.6706 57.4009 52.2037 60.424 49.4964C63.4471 46.7892 66.9213 45.4356 70.8469 45.4356C74.0053 45.4356 76.4193 46.4508 78.0887 48.4812C79.8033 50.5116 80.6606 53.3542 80.6606 57.009C80.6606 58.9943 80.3673 61.4083 79.7807 64.2509L75.6522 83.6077C75.201 85.8637 74.9754 87.8039 74.9754 89.4283C74.9754 91.3233 75.404 92.7446 76.2613 93.6922C77.1638 94.6397 78.4046 95.1135 79.9838 95.1135C81.4728 95.1135 82.9166 94.6171 84.3154 93.6245C85.7592 92.6318 87.4513 90.9849 89.3915 88.6838C89.9329 88.0521 90.542 87.7362 91.2188 87.7362C91.8054 87.7362 92.2566 88.007 92.5725 88.5484C92.9334 89.0898 93.1139 89.8343 93.1139 90.7819C93.1139 92.5416 92.6853 93.9403 91.828 94.9781C89.4817 97.8207 87.158 99.8963 84.8568 101.205C82.5557 102.513 80.1417 103.168 77.615 103.168C73.7797 103.168 70.7792 102.039 68.6134 99.7835C66.4476 97.4823 65.3647 94.4141 65.3647 90.5788C65.3647 87.9167 65.9061 84.0589 66.989 79.0054L69.6963 66.6197C69.7865 66.2136 69.9444 65.4917 70.17 64.4539C70.3956 63.4162 70.5761 62.4461 70.7115 61.5437C70.8468 60.5961 70.9145 59.6711 70.9145 58.7687C70.9145 57.1895 70.5987 56.0164 69.967 55.2493C69.3804 54.4371 68.5231 54.0311 67.3951 54.0311C65.2744 54.0311 63.041 55.4072 60.6947 58.1596C58.3935 60.8668 56.1826 65.3789 54.0619 71.6958C51.9864 78.0127 50.2944 86.2247 48.9859 96.3317C48.67 99.039 48.106 100.866 47.2938 101.814C46.5268 102.716 45.2634 103.168 43.5037 103.168C41.9696 103.168 40.8416 102.807 40.1196 102.085C39.4428 101.363 39.1044 100.009 39.1044 98.0237C39.1044 96.1738 39.3526 93.7598 39.8489 90.7819C40.3453 87.7588 40.9769 84.2168 41.744 80.1559C43.8195 69.2367 44.8573 62.1979 44.8573 59.0395C44.8573 57.3249 44.5189 56.0615 43.8421 55.2493C43.2104 54.4371 42.2403 54.0311 40.9318 54.0311C38.7209 54.0311 36.4423 55.2944 34.096 57.8212C31.7498 60.3028 29.4486 64.7472 27.1926 71.1544C24.9817 77.5164 23.1317 86.1344 21.6427 97.0085C21.3269 99.3097 20.8531 100.911 20.2214 101.814C19.6349 102.716 18.4617 103.168 16.702 103.168ZM104.716 103.168C101.603 103.168 98.7826 102.4 96.2558 100.866C93.7742 99.3322 91.8114 97.1213 90.3675 94.2336C88.9237 91.3008 88.2018 87.849 88.2018 83.8784C88.2018 77.0201 89.6682 70.6806 92.601 64.86C95.5339 58.9943 99.8655 54.3018 105.596 50.7824C111.326 47.2178 118.207 45.4356 126.239 45.4356C128.314 45.4356 130.525 45.5935 132.871 45.9093C135.263 46.2252 137.428 46.6989 139.369 47.3306C140.632 47.6916 141.264 48.594 141.264 50.0379C141.264 51.211 140.812 52.3165 139.91 53.3543C139.053 54.392 138.038 54.9109 136.864 54.9109C136.503 54.9109 136.233 54.8884 136.052 54.8432C133.706 54.3018 131.698 53.9183 130.029 53.6927C128.359 53.4219 126.599 53.2866 124.75 53.2866C119.019 53.2866 114.146 54.6853 110.13 57.4828C106.115 60.2352 103.114 63.8899 101.129 68.4471C99.1435 73.0043 98.1509 77.9225 98.1509 83.2016C98.1509 87.0369 98.8954 90.0148 100.384 92.1355C101.918 94.211 103.904 95.2488 106.34 95.2488C109.093 95.2488 111.507 94.1208 113.582 91.8648C115.658 89.6087 117.553 85.954 119.267 80.9004C120.982 75.8469 122.674 68.9886 124.343 60.3254C124.614 59.062 125.156 58.2047 125.968 57.7535C126.78 57.3023 127.863 57.0767 129.216 57.0767C132.42 57.0767 134.022 58.1145 134.022 60.19C134.022 60.551 133.954 61.0022 133.819 61.5437C132.646 65.9204 131.563 70.7708 130.57 76.0951C129.623 81.3742 129.149 85.3899 129.149 88.1423C129.149 90.5788 129.51 92.3611 130.232 93.4891C130.954 94.572 132.059 95.1135 133.548 95.1135C134.992 95.1135 136.368 94.6397 137.677 93.6922C138.985 92.6995 140.632 91.03 142.617 88.6838C143.159 88.0521 143.768 87.7362 144.445 87.7362C145.031 87.7362 145.482 88.007 145.798 88.5484C146.159 89.0898 146.34 89.8343 146.34 90.7819C146.34 92.5416 145.911 93.9403 145.054 94.9781C142.843 97.6402 140.677 99.6707 138.556 101.069C136.436 102.468 133.841 103.168 130.773 103.168C127.615 103.168 125.065 102.265 123.125 100.46C121.185 98.6103 119.967 96.0159 119.47 92.6769C116.131 99.6707 111.213 103.168 104.716 103.168Z" fill="#0A284D"/>
<path d="M13.1149 102.085L12.1292 103.012L12.1433 103.027L12.1578 103.042L13.1149 102.085ZM12.4381 92.4739L11.0981 92.2825L11.0964 92.2942L11.0949 92.306L12.4381 92.4739ZM13.9271 83.4046L15.2601 83.6399L15.2613 83.6328L15.2625 83.6258L13.9271 83.4046ZM16.702 64.9954L18.0443 65.1705L18.0452 65.1633L16.702 64.9954ZM10.8138 55.6554L11.6063 56.7528L11.6117 56.7488L10.8138 55.6554ZM5.39927 61.3406L4.32085 60.5225L4.31514 60.53L4.30953 60.5376L5.39927 61.3406ZM1.60913 61.7467L0.507643 62.5335L0.539922 62.5787L0.575793 62.6211L1.60913 61.7467ZM1.33841 57.4828L0.0867414 56.9674L0.0785369 56.9873L0.0709707 57.0075L1.33841 57.4828ZM2.82739 54.9109L1.72701 54.1226L1.7259 54.1241L2.82739 54.9109ZM10.0693 47.9398L10.7743 49.0953L10.7814 49.0909L10.7884 49.0865L10.0693 47.9398ZM23.7408 47.8044L22.6985 48.668L22.7057 48.6767L22.7131 48.6853L23.7408 47.8044ZM25.4329 59.0395L26.7736 59.2257L26.7743 59.2207L25.4329 59.0395ZM24.8237 63.0326L26.1573 63.2646L24.8237 63.0326ZM24.4176 65.1984L23.0963 64.9048L25.6954 65.6453L24.4176 65.1984ZM33.0808 49.8348L33.9872 50.8403L33.9949 50.8332L33.0808 49.8348ZM50.5425 48.5489L49.4878 49.3973L49.4933 49.4042L49.4989 49.411L50.5425 48.5489ZM52.5053 62.8973L51.1739 62.6527L53.7779 63.3584L52.5053 62.8973ZM60.424 49.4964L59.5209 48.488L60.424 49.4964ZM78.0887 48.4812L77.0432 49.3409L77.0488 49.3478L77.0545 49.3545L78.0887 48.4812ZM79.7807 64.2509L81.1046 64.5333L81.1064 64.5245L79.7807 64.2509ZM75.6522 83.6077L74.3284 83.3253L74.3266 83.3338L74.3249 83.3422L75.6522 83.6077ZM76.2613 93.6922L75.2576 94.6003L75.2692 94.6132L75.2811 94.6257L76.2613 93.6922ZM84.3154 93.6245L83.5485 92.509L83.5402 92.5148L83.532 92.5206L84.3154 93.6245ZM89.3915 88.6838L88.3637 87.8028L88.3566 87.8112L89.3915 88.6838ZM92.5725 88.5484L91.4032 89.2304L91.4237 89.2655L91.4462 89.2993L92.5725 88.5484ZM91.828 94.9781L90.7844 94.116L90.784 94.1164L91.828 94.9781ZM84.8568 101.205L85.5259 102.381L84.8568 101.205ZM68.6134 99.7835L67.6276 100.711L67.6369 100.721L68.6134 99.7835ZM66.989 79.0054L65.6666 78.7163L65.6655 78.7217L66.989 79.0054ZM69.6963 66.6197L68.3749 66.3261L68.3739 66.3307L69.6963 66.6197ZM70.7115 61.5437L72.0502 61.7445L72.0515 61.7351L70.7115 61.5437ZM69.967 55.2493L68.8696 56.0419L68.8948 56.0767L68.9221 56.1098L69.967 55.2493ZM60.6947 58.1596L59.6646 57.2815L59.6633 57.2829L60.6947 58.1596ZM54.0619 71.6958L52.7787 71.265L52.776 71.2733L54.0619 71.6958ZM48.9859 96.3317L47.6435 96.1579L47.6424 96.1664L47.6414 96.1749L48.9859 96.3317ZM47.2938 101.814L46.2661 100.933L46.2625 100.937L47.2938 101.814ZM40.1196 102.085L39.1321 103.01L39.1471 103.026L39.1625 103.042L40.1196 102.085ZM39.8489 90.7819L41.1841 91.0044L41.1847 91.0012L39.8489 90.7819ZM41.744 80.1559L40.4142 79.9032L40.4139 79.9047L41.744 80.1559ZM43.8421 55.2493L42.7736 56.0804L42.7876 56.0984L42.8022 56.1159L43.8421 55.2493ZM34.096 57.8212L35.0797 58.7512L35.088 58.7423L34.096 57.8212ZM27.1926 71.1544L25.9158 70.7048L25.914 70.71L27.1926 71.1544ZM21.6427 97.0085L22.9838 97.1926L22.9838 97.1922L21.6427 97.0085ZM20.2214 101.814L19.1125 101.038L19.0992 101.057L19.0865 101.076L20.2214 101.814ZM16.702 101.814C15.1741 101.814 14.4194 101.475 14.0721 101.127L12.1578 103.042C13.2543 104.138 14.8909 104.521 16.702 104.521V101.814ZM14.1006 101.157C13.7582 100.793 13.3856 99.8415 13.3856 97.8207H10.6784C10.6784 99.951 11.0278 101.842 12.1292 103.012L14.1006 101.157ZM13.3856 97.8207C13.3856 96.5 13.5141 94.779 13.7813 92.6418L11.0949 92.306C10.8206 94.5004 10.6784 96.3439 10.6784 97.8207H13.3856ZM13.7781 92.6653C14.0909 90.4759 14.5843 87.4695 15.2601 83.6399L12.5941 83.1694C11.9163 87.0103 11.417 90.05 11.0981 92.2825L13.7781 92.6653ZM15.2625 83.6258C16.4373 76.5317 17.3649 70.3792 18.0443 65.1705L15.3598 64.8203C14.6855 69.9893 13.7631 76.1097 12.5916 83.1835L15.2625 83.6258ZM18.0452 65.1633C18.4551 61.884 18.6648 59.1162 18.6648 56.8737H15.9575C15.9575 58.9627 15.7611 61.6094 15.3588 64.8275L18.0452 65.1633ZM18.6648 56.8737C18.6648 55.733 18.4627 54.6322 17.8443 53.7889C17.1685 52.8674 16.164 52.4744 15.0777 52.4744V55.1816C15.4803 55.1816 15.5925 55.2963 15.6612 55.3899C15.7873 55.5618 15.9575 55.9839 15.9575 56.8737H18.6648ZM15.0777 52.4744C13.4711 52.4744 11.7607 53.2887 10.0158 54.562L11.6117 56.7488C13.2057 55.5856 14.338 55.1816 15.0777 55.1816V52.4744ZM10.0212 54.5581C8.24131 55.8435 6.34244 57.8577 4.32085 60.5225L6.47769 62.1587C8.42672 59.5895 10.1375 57.8135 11.6063 56.7528L10.0212 54.5581ZM4.30953 60.5376C3.82679 61.1928 3.48598 61.2729 3.30116 61.2729V63.9802C4.65044 63.9802 5.70837 63.203 6.48901 62.1436L4.30953 60.5376ZM3.30116 61.2729C3.15324 61.2729 2.94257 61.227 2.64247 60.8723L0.575793 62.6211C1.26835 63.4395 2.18569 63.9802 3.30116 63.9802V61.2729ZM2.71062 60.9599C2.42127 60.5548 2.28594 60.1299 2.28594 59.6486H-0.421302C-0.421302 60.7014 -0.105428 61.6752 0.507643 62.5335L2.71062 60.9599ZM2.28594 59.6486C2.28594 59.0997 2.38821 58.5384 2.60584 57.9581L0.0709707 57.0075C-0.252843 57.871 -0.421302 58.7536 -0.421302 59.6486H2.28594ZM2.59007 57.9982C2.85415 57.3569 3.29019 56.5919 3.92887 55.6977L1.7259 54.1241C1.01097 55.125 0.454353 56.0746 0.0867414 56.9674L2.59007 57.9982ZM3.92776 55.6992C6.00775 52.7959 8.29411 50.6086 10.7743 49.0953L9.36421 46.7843C6.52017 48.5196 3.97862 50.9797 1.72701 54.1226L3.92776 55.6992ZM10.7884 49.0865C13.2744 47.5275 15.6907 46.7892 18.0556 46.7892V44.0819C15.0963 44.0819 12.1883 45.0131 9.3501 46.793L10.7884 49.0865ZM18.0556 46.7892C20.2274 46.7892 21.7013 47.4645 22.6985 48.668L24.7832 46.9408C23.1634 44.9859 20.8471 44.0819 18.0556 44.0819V46.7892ZM22.7131 48.6853C23.7789 49.9288 24.4176 51.8645 24.4176 54.7079H27.1249C27.1249 51.505 26.41 48.8385 24.7686 46.9235L22.7131 48.6853ZM24.4176 54.7079C24.4176 55.8475 24.3117 57.2279 24.0914 58.8582L26.7743 59.2207C27.0052 57.5121 27.1249 56.0047 27.1249 54.7079H24.4176ZM24.0921 58.8532C23.8676 60.4697 23.6669 61.784 23.4901 62.8007L26.1573 63.2646C26.3415 62.2057 26.5469 60.8579 26.7736 59.2257L24.0921 58.8532ZM23.4901 62.8007C23.3094 63.8396 23.1789 64.5331 23.0963 64.9048L25.739 65.4921C25.8369 65.0516 25.9771 64.3012 26.1573 63.2646L23.4901 62.8007ZM25.6954 65.6453C28.2438 58.3576 31.0392 53.4976 33.9871 50.8403L32.1745 48.8294C28.7153 51.9475 25.7352 57.3299 23.1399 64.7516L25.6954 65.6453ZM33.9949 50.8332C36.9844 48.0963 40.1875 46.7892 43.6391 46.7892V44.0819C39.4202 44.0819 35.5844 45.7076 32.1668 48.8364L33.9949 50.8332ZM43.6391 46.7892C46.2092 46.7892 48.1034 47.6762 49.4878 49.3973L51.5973 47.7005C49.6427 45.2705 46.9347 44.0819 43.6391 44.0819V46.7892ZM49.4989 49.411C50.9451 51.1616 51.7608 53.7455 51.7608 57.3474H54.468C54.468 53.3691 53.5691 50.0872 51.5861 47.6868L49.4989 49.411ZM51.7608 57.3474C51.7608 58.7243 51.5719 60.4862 51.1739 62.6527L53.8366 63.1418C54.2509 60.8865 54.468 58.9485 54.468 57.3474H51.7608ZM53.7779 63.3584C56.0006 57.2237 58.544 52.9971 61.327 50.5048L59.5209 48.488C56.2578 51.4103 53.522 56.1175 51.2326 62.4362L53.7779 63.3584ZM61.327 50.5048C64.111 48.0116 67.2668 46.7892 70.8468 46.7892V44.0819C66.5759 44.0819 62.7831 45.5667 59.5209 48.488L61.327 50.5048ZM70.8468 46.7892C73.6906 46.7892 75.6831 47.6868 77.0432 49.3409L79.1343 47.6215C77.1554 45.2148 74.32 44.0819 70.8468 44.0819V46.7892ZM77.0545 49.3545C78.497 51.0627 79.307 53.5543 79.307 57.009H82.0142C82.0142 53.1542 81.1097 49.9606 79.1229 47.6079L77.0545 49.3545ZM79.307 57.009C79.307 58.8709 79.0307 61.1875 78.4551 63.9773L81.1064 64.5245C81.7039 61.6291 82.0142 59.1177 82.0142 57.009H79.307ZM78.4569 63.9685L74.3284 83.3253L76.9761 83.89L81.1046 64.5333L78.4569 63.9685ZM74.3249 83.3422C73.8628 85.6527 73.6218 87.6865 73.6218 89.4283H76.329C76.329 87.9213 76.5392 86.0747 76.9795 83.8731L74.3249 83.3422ZM73.6218 89.4283C73.6218 91.5004 74.0875 93.3071 75.2576 94.6003L77.2651 92.784C76.7205 92.1821 76.329 91.1463 76.329 89.4283H73.6218ZM75.2811 94.6257C76.4908 95.8959 78.1166 96.4671 79.9838 96.4671V93.7598C78.6925 93.7598 77.8367 93.3835 77.2415 92.7586L75.2811 94.6257ZM79.9838 96.4671C81.7946 96.4671 83.5071 95.8579 85.0988 94.7284L83.532 92.5206C82.3262 93.3763 81.1509 93.7598 79.9838 93.7598V96.4671ZM85.0822 94.7399C86.6723 93.6468 88.4554 91.894 90.4263 89.5563L88.3566 87.8112C86.4472 90.0759 84.8462 91.6169 83.5485 92.509L85.0822 94.7399ZM90.4192 89.5647C90.7677 89.1581 91.0262 89.0898 91.2188 89.0898V86.3826C90.0578 86.3826 89.0981 86.9461 88.3637 87.8028L90.4192 89.5647ZM91.2188 89.0898C91.2609 89.0898 91.2834 89.0946 91.2917 89.0968C91.2991 89.0987 91.3006 89.0999 91.3008 89.1C91.3012 89.1003 91.3099 89.1053 91.3261 89.1225C91.343 89.1404 91.3701 89.1737 91.4032 89.2304L93.7417 87.8663C93.2036 86.9439 92.3259 86.3826 91.2188 86.3826V89.0898ZM91.4462 89.2993C91.6056 89.5384 91.7603 89.9859 91.7603 90.7819H94.4675C94.4675 89.6828 94.2612 88.6413 93.6987 87.7975L91.4462 89.2993ZM91.7603 90.7819C91.7603 92.3248 91.3867 93.3869 90.7844 94.116L92.8716 95.8402C93.9838 94.4938 94.4675 92.7584 94.4675 90.7819H91.7603ZM90.784 94.1164C88.5044 96.8783 86.3017 98.826 84.1877 100.028L85.5259 102.381C88.0143 100.966 90.459 98.7631 92.8719 95.8398L90.784 94.1164ZM84.1877 100.028C82.0804 101.226 79.8958 101.814 77.615 101.814V104.521C80.3877 104.521 83.0309 103.8 85.5259 102.381L84.1877 100.028ZM77.615 101.814C74.059 101.814 71.4446 100.778 69.5899 98.846L67.6369 100.721C70.1138 103.301 73.5004 104.521 77.615 104.521V101.814ZM69.5991 98.8557C67.7181 96.8571 66.7183 94.1471 66.7183 90.5788H64.0111C64.0111 94.6811 65.1771 98.1075 67.6277 100.711L69.5991 98.8557ZM66.7183 90.5788C66.7183 88.0637 67.2347 84.3191 68.3126 79.289L65.6655 78.7217C64.5775 83.7987 64.0111 87.7697 64.0111 90.5788H66.7183ZM68.3114 79.2944L71.0187 66.9088L68.3739 66.3307L65.6666 78.7163L68.3114 79.2944ZM71.0177 66.9134C71.1087 66.5039 71.2672 65.7791 71.4928 64.7415L68.8473 64.1664C68.6217 65.2043 68.4644 65.9234 68.3749 66.3261L71.0177 66.9134ZM71.4928 64.7415C71.7236 63.6795 71.9098 62.6802 72.0501 61.7445L69.3728 61.3429C69.2425 62.2119 69.0677 63.1528 68.8473 64.1664L71.4928 64.7415ZM72.0515 61.7351C72.1954 60.7279 72.2682 59.7389 72.2682 58.7687H69.5609C69.5609 59.6034 69.4983 60.4643 69.3715 61.3522L72.0515 61.7351ZM72.2682 58.7687C72.2682 57.0493 71.9311 55.505 71.0119 54.3888L68.9221 56.1098C69.2663 56.5278 69.5609 57.3297 69.5609 58.7687H72.2682ZM71.0643 54.4568C70.1884 53.244 68.8946 52.6774 67.3951 52.6774V55.3847C68.1517 55.3847 68.5724 55.6303 68.8696 56.0419L71.0643 54.4568ZM67.3951 52.6774C64.6713 52.6774 62.0939 54.4317 59.6646 57.2815L61.7248 59.0377C63.988 56.3828 65.8776 55.3847 67.3951 55.3847V52.6774ZM59.6633 57.2829C57.1915 60.1909 54.9147 64.9023 52.7787 71.265L55.3452 72.1266C57.4505 65.8555 59.5956 61.5428 61.7261 59.0363L59.6633 57.2829ZM52.776 71.2733C50.6637 77.7018 48.9578 86.0059 47.6435 96.1579L50.3283 96.5055C51.631 86.4434 53.3091 78.3236 55.3479 72.1184L52.776 71.2733ZM47.6414 96.1749C47.3275 98.8652 46.7902 100.322 46.2661 100.933L48.3216 102.695C49.4219 101.411 50.0126 99.2128 50.3304 96.4886L47.6414 96.1749ZM46.2625 100.937C45.8572 101.414 45.0627 101.814 43.5037 101.814V104.521C45.4641 104.521 47.1964 104.019 48.3252 102.691L46.2625 100.937ZM43.5037 101.814C42.1504 101.814 41.4418 101.493 41.0768 101.127L39.1625 103.042C40.2413 104.121 41.7888 104.521 43.5037 104.521V101.814ZM41.1072 101.159C40.8107 100.843 40.4581 99.9623 40.4581 98.0238H37.7508C37.7508 100.056 38.075 101.883 39.1321 103.01L41.1072 101.159ZM40.4581 98.0238C40.4581 96.28 40.6934 93.9486 41.1841 91.0044L38.5137 90.5593C38.0118 93.5711 37.7508 96.0676 37.7508 98.0238H40.4581ZM41.1847 91.0012C41.6788 87.9917 42.3084 84.4608 43.0741 80.4072L40.4139 79.9047C39.6455 83.9728 39.0117 87.5259 38.5132 90.5626L41.1847 91.0012ZM43.0738 80.4087C45.1425 69.5256 46.2109 62.3513 46.2109 59.0395H43.5037C43.5037 62.0445 42.4966 68.9479 40.4142 79.9032L43.0738 80.4087ZM46.2109 59.0395C46.2109 57.1919 45.8542 55.5494 44.882 54.3828L42.8022 56.1159C43.1836 56.5736 43.5037 57.4579 43.5037 59.0395H46.2109ZM44.9106 54.4183C43.9547 53.1893 42.5337 52.6774 40.9318 52.6774V55.3847C41.947 55.3847 42.4661 55.685 42.7736 56.0804L44.9106 54.4183ZM40.9318 52.6774C38.178 52.6774 35.5655 54.2494 33.1041 56.9001L35.088 58.7423C37.3191 56.3395 39.2638 55.3847 40.9318 55.3847V52.6774ZM33.1124 56.8912C30.5616 59.5892 28.1847 64.261 25.9158 70.7048L28.4694 71.6039C30.7125 65.2334 32.9379 61.0165 35.0796 58.7512L33.1124 56.8912ZM25.914 70.71C23.6612 77.1926 21.7962 85.91 20.3016 96.8249L22.9838 97.1922C24.4672 86.3589 26.3022 77.8402 28.4712 71.5987L25.914 70.71ZM20.3017 96.8245C19.9895 99.0987 19.5457 100.419 19.1125 101.038L21.3303 102.59C22.1605 101.404 22.6642 99.5207 22.9838 97.1926L20.3017 96.8245ZM19.0865 101.076C18.8773 101.398 18.3018 101.814 16.702 101.814V104.521C18.6217 104.521 20.3924 104.035 21.3564 102.552L19.0865 101.076ZM96.2558 100.866L95.544 102.018L95.5533 102.023L96.2558 100.866ZM90.3675 94.2336L89.1531 94.8315L89.1568 94.839L90.3675 94.2336ZM92.601 64.86L93.8099 65.4691L93.8117 65.4654L92.601 64.86ZM105.596 50.7824L106.304 51.9358L106.311 51.9318L105.596 50.7824ZM132.871 45.9093L132.691 47.2509L132.694 47.2513L132.871 45.9093ZM139.369 47.3306L138.95 48.6178L138.973 48.6254L138.997 48.6322L139.369 47.3306ZM139.91 53.3543L138.889 52.466L138.877 52.479L138.866 52.4922L139.91 53.3543ZM136.052 54.8432L136.381 53.53L136.369 53.527L136.357 53.5243L136.052 54.8432ZM130.029 53.6927L129.812 55.0288L129.83 55.0317L129.847 55.0341L130.029 53.6927ZM110.13 57.4828L110.896 58.5994L110.904 58.5935L110.13 57.4828ZM101.129 68.4471L99.8879 67.9065L101.129 68.4471ZM100.384 92.1355L99.2765 92.9133L99.286 92.9268L99.2958 92.9401L100.384 92.1355ZM113.582 91.8648L114.578 92.7812L113.582 91.8648ZM119.267 80.9004L120.549 81.3354V81.3354L119.267 80.9004ZM124.343 60.3254L123.02 60.0418L123.017 60.0555L123.014 60.0693L124.343 60.3254ZM125.968 57.7535L126.625 58.9368V58.9368L125.968 57.7535ZM133.819 61.5437L135.126 61.8941L135.129 61.8831L135.132 61.872L133.819 61.5437ZM130.57 76.0951L129.239 75.847L129.238 75.8559L130.57 76.0951ZM130.232 93.4891L129.092 94.2188L129.098 94.2294L129.105 94.24L130.232 93.4891ZM137.677 93.6922L138.471 94.7885L138.483 94.7797L138.495 94.7706L137.677 93.6922ZM142.617 88.6838L141.59 87.8028L141.584 87.8094L142.617 88.6838ZM145.798 88.5484L144.629 89.2305L144.65 89.2655L144.672 89.2992L145.798 88.5484ZM145.054 94.9781L146.095 95.8429L146.097 95.8402L145.054 94.9781ZM138.556 101.069L137.811 99.9394L138.556 101.069ZM123.125 100.46L122.191 101.44L122.197 101.446L122.203 101.451L123.125 100.46ZM119.47 92.6769L120.809 92.4779L120.158 88.0952L118.249 92.0938L119.47 92.6769ZM104.716 101.814C101.837 101.814 99.2618 101.108 96.9583 99.7093L95.5533 102.023C98.3033 103.693 101.369 104.521 104.716 104.521V101.814ZM96.9676 99.715C94.7221 98.3268 92.9221 96.3159 91.5783 93.6283L89.1568 94.839C90.7007 97.9268 92.8263 100.338 95.544 102.018L96.9676 99.715ZM91.582 93.6357C90.2473 90.9246 89.5554 87.6855 89.5554 83.8784H86.8481C86.8481 88.0125 87.6001 91.6769 89.1531 94.8315L91.582 93.6357ZM89.5554 83.8784C89.5554 77.2202 90.9772 71.0909 93.8099 65.4691L91.3922 64.2509C88.3592 70.2703 86.8481 76.8199 86.8481 83.8784H89.5554ZM93.8117 65.4654C96.6286 59.8317 100.783 55.3265 106.304 51.9358L104.887 49.6289C98.9475 53.277 94.4391 58.157 91.3903 64.2547L93.8117 65.4654ZM106.311 51.9318C111.789 48.5242 118.411 46.7892 126.239 46.7892V44.0819C118.003 44.0819 110.864 45.9114 104.881 49.633L106.311 51.9318ZM126.239 46.7892C128.246 46.7892 130.396 46.942 132.691 47.2509L133.052 44.5678C130.654 44.245 128.382 44.0819 126.239 44.0819V46.7892ZM132.694 47.2513C135.018 47.5582 137.101 48.0158 138.95 48.6178L139.788 46.0435C137.756 45.3821 135.508 44.8922 133.048 44.5674L132.694 47.2513ZM138.997 48.6322C139.39 48.7444 139.576 48.9045 139.681 49.0544C139.795 49.2169 139.91 49.5081 139.91 50.0379H142.617C142.617 49.1238 142.417 48.2419 141.899 47.5019C141.372 46.7495 140.611 46.2778 139.74 46.0291L138.997 48.6322ZM139.91 50.0379C139.91 50.8297 139.616 51.6298 138.889 52.466L140.932 54.2425C142.009 53.0032 142.617 51.5923 142.617 50.0379H139.91ZM138.866 52.4922C138.224 53.2701 137.572 53.5573 136.864 53.5573V56.2645C138.504 56.2645 139.882 55.514 140.954 54.2163L138.866 52.4922ZM136.864 53.5573C136.71 53.5573 136.591 53.5524 136.503 53.5451C136.411 53.5373 136.376 53.5288 136.381 53.53L135.724 56.1564C136.07 56.243 136.476 56.2645 136.864 56.2645V53.5573ZM136.357 53.5243C133.985 52.9771 131.934 52.5842 130.21 52.3512L129.847 55.0341C131.462 55.2523 133.427 55.6265 135.748 56.1622L136.357 53.5243ZM130.245 52.3565C128.498 52.0731 126.665 51.9329 124.75 51.9329V54.6402C126.534 54.6402 128.22 54.7707 129.812 55.0288L130.245 52.3565ZM124.75 51.9329C118.791 51.9329 113.636 53.3908 109.357 56.3721L110.904 58.5935C114.656 55.9798 119.247 54.6402 124.75 54.6402V51.9329ZM109.365 56.3663C105.135 59.2653 101.972 63.1217 99.8879 67.9065L102.37 68.9877C104.256 64.6582 107.094 61.205 110.896 58.5993L109.365 56.3663ZM99.8879 67.9065C97.8237 72.6447 96.7972 77.7482 96.7972 83.2016H99.5045C99.5045 78.0968 100.463 73.364 102.37 68.9877L99.8879 67.9065ZM96.7972 83.2016C96.7972 87.1885 97.5676 90.4794 99.2765 92.9133L101.492 91.3577C100.223 89.5503 99.5045 86.8852 99.5045 83.2016H96.7972ZM99.2958 92.9401C101.067 95.337 103.445 96.6024 106.34 96.6024V93.8952C104.362 93.8952 102.769 93.0851 101.473 91.3309L99.2958 92.9401ZM106.34 96.6024C109.517 96.6024 112.279 95.2807 114.578 92.7812L112.586 90.9483C110.734 92.9609 108.669 93.8952 106.34 93.8952V96.6024ZM114.578 92.7812C116.843 90.3194 118.812 86.4544 120.549 81.3354L117.986 80.4655C116.293 85.4535 114.472 88.8981 112.586 90.9483L114.578 92.7812ZM120.549 81.3354C122.292 76.1981 123.998 69.2717 125.673 60.5815L123.014 60.0693C121.35 68.7055 119.672 75.4958 117.986 80.4655L120.549 81.3354ZM125.667 60.609C125.889 59.5724 126.272 59.1329 126.625 58.9368L125.31 56.5702C124.039 57.2766 123.339 58.5516 123.02 60.0418L125.667 60.609ZM126.625 58.9368C127.165 58.6368 127.995 58.4303 129.216 58.4303V55.7231C127.731 55.7231 126.395 55.9678 125.31 56.5702L126.625 58.9368ZM129.216 58.4303C130.715 58.4303 131.606 58.681 132.084 58.9911C132.462 59.2355 132.668 59.5634 132.668 60.19H135.375C135.375 58.7411 134.781 57.5123 133.557 56.719C132.433 55.9913 130.921 55.7231 129.216 55.7231V58.4303ZM132.668 60.19C132.668 60.3975 132.627 60.7297 132.506 61.2154L135.132 61.872C135.281 61.2747 135.375 60.7045 135.375 60.19H132.668ZM132.511 61.1932C131.328 65.6095 130.237 70.4947 129.239 75.847L131.901 76.3432C132.888 71.0469 133.964 66.2313 135.126 61.8941L132.511 61.1932ZM129.238 75.8559C128.287 81.1547 127.795 85.2662 127.795 88.1423H130.502C130.502 85.5137 130.958 81.5937 131.902 76.3342L129.238 75.8559ZM127.795 88.1423C127.795 90.655 128.157 92.7582 129.092 94.2188L131.372 92.7594C130.863 91.964 130.502 90.5026 130.502 88.1423H127.795ZM129.105 94.24C130.118 95.7586 131.683 96.4671 133.548 96.4671V93.7598C132.436 93.7598 131.789 93.3854 131.358 92.7383L129.105 94.24ZM133.548 96.4671C135.311 96.4671 136.96 95.8825 138.471 94.7885L136.883 92.5958C135.776 93.3969 134.673 93.7598 133.548 93.7598V96.4671ZM138.495 94.7706C139.923 93.6869 141.646 91.9267 143.651 89.5581L141.584 87.8094C139.618 90.1333 138.047 91.7121 136.858 92.6137L138.495 94.7706ZM143.645 89.5647C143.994 89.1581 144.252 89.0898 144.445 89.0898V86.3826C143.284 86.3826 142.324 86.9461 141.59 87.8028L143.645 89.5647ZM144.445 89.0898C144.487 89.0898 144.509 89.0946 144.518 89.0968C144.525 89.0987 144.526 89.0999 144.527 89.1C144.527 89.1003 144.536 89.1053 144.552 89.1225C144.569 89.1404 144.596 89.1737 144.629 89.2305L146.968 87.8663C146.429 86.9439 145.552 86.3826 144.445 86.3826V89.0898ZM144.672 89.2992C144.832 89.5384 144.986 89.9859 144.986 90.7819H147.693C147.693 89.6828 147.487 88.6413 146.925 87.7975L144.672 89.2992ZM144.986 90.7819C144.986 92.3248 144.613 93.3869 144.01 94.116L146.097 95.8402C147.21 94.4938 147.693 92.7584 147.693 90.7819H144.986ZM144.013 94.1133C141.858 96.7073 139.789 98.6351 137.811 99.9394L139.302 102.199C141.566 100.706 143.828 98.5731 146.095 95.8429L144.013 94.1133ZM137.811 99.9394C135.954 101.164 133.632 101.814 130.773 101.814V104.521C134.051 104.521 136.918 103.772 139.302 102.199L137.811 99.9394ZM130.773 101.814C127.887 101.814 125.69 100.998 124.047 99.4692L122.203 101.451C124.441 103.533 127.342 104.521 130.773 104.521V101.814ZM124.059 99.4806C122.388 97.8874 121.273 95.5974 120.809 92.4779L118.131 92.876C118.66 96.4343 119.982 99.3332 122.191 101.44L124.059 99.4806ZM118.249 92.0938C116.651 95.4406 114.719 97.8593 112.493 99.4417C110.281 101.014 107.706 101.814 104.716 101.814V104.521C108.223 104.521 111.356 103.572 114.062 101.648C116.755 99.7336 118.951 96.907 120.692 93.2601L118.249 92.0938Z" fill="white" mask="url(#path-3-outside-1_38_271)"/>
</svg>
