<svg width="31" height="33" viewBox="0 0 31 33" fill="none" xmlns="http://www.w3.org/2000/svg">
<g clip-path="url(#clip0_99_1054)">
<path d="M24.9071 4.41838H23.2655V2.77679C23.2655 2.34141 23.0926 1.92386 22.7847 1.616C22.4769 1.30815 22.0593 1.13519 21.6239 1.13519C21.1885 1.13519 20.771 1.30815 20.4631 1.616C20.1553 1.92386 19.9823 2.34141 19.9823 2.77679V4.41838H10.1328V2.77679C10.1328 2.34141 9.95981 1.92386 9.65196 1.616C9.3441 1.30815 8.92655 1.13519 8.49117 1.13519C8.0558 1.13519 7.63825 1.30815 7.33039 1.616C7.02253 1.92386 6.84958 2.34141 6.84958 2.77679V4.41838H5.20799C3.90185 4.41838 2.64921 4.93724 1.72564 5.86082C0.802063 6.78439 0.283203 8.03703 0.283203 9.34316V27.4007C0.283203 28.7068 0.802063 29.9595 1.72564 30.883C2.64921 31.8066 3.90185 32.3255 5.20799 32.3255H24.9071C26.2132 32.3255 27.4659 31.8066 28.3895 30.883C29.313 29.9595 29.8319 28.7068 29.8319 27.4007V9.34316C29.8319 8.03703 29.313 6.78439 28.3895 5.86082C27.4659 4.93724 26.2132 4.41838 24.9071 4.41838ZM8.49117 27.4007C8.1665 27.4007 7.84911 27.3044 7.57915 27.124C7.30919 26.9437 7.09879 26.6873 6.97454 26.3873C6.85029 26.0874 6.81778 25.7573 6.88112 25.4388C6.94446 25.1204 7.10081 24.8279 7.33039 24.5983C7.55997 24.3687 7.85248 24.2124 8.17091 24.1491C8.48935 24.0857 8.81942 24.1182 9.11938 24.2425C9.41935 24.3667 9.67573 24.5771 9.85611 24.8471C10.0365 25.117 10.1328 25.4344 10.1328 25.7591C10.1328 26.1945 9.95981 26.612 9.65196 26.9199C9.3441 27.2277 8.92655 27.4007 8.49117 27.4007ZM8.49117 20.8343C8.1665 20.8343 7.84911 20.738 7.57915 20.5577C7.30919 20.3773 7.09879 20.1209 6.97454 19.8209C6.85029 19.521 6.81778 19.1909 6.88112 18.8725C6.94446 18.554 7.10081 18.2615 7.33039 18.0319C7.55997 17.8024 7.85248 17.646 8.17091 17.5827C8.48935 17.5193 8.81942 17.5518 9.11938 17.6761C9.41935 17.8003 9.67573 18.0107 9.85611 18.2807C10.0365 18.5507 10.1328 18.8681 10.1328 19.1927C10.1328 19.6281 9.95981 20.0457 9.65196 20.3535C9.3441 20.6614 8.92655 20.8343 8.49117 20.8343ZM15.0575 27.4007C14.7329 27.4007 14.4155 27.3044 14.1455 27.124C13.8756 26.9437 13.6652 26.6873 13.5409 26.3873C13.4167 26.0874 13.3842 25.7573 13.4475 25.4388C13.5108 25.1204 13.6672 24.8279 13.8968 24.5983C14.1263 24.3687 14.4189 24.2124 14.7373 24.1491C15.0557 24.0857 15.3858 24.1182 15.6858 24.2425C15.9857 24.3667 16.2421 24.5771 16.4225 24.8471C16.6029 25.117 16.6991 25.4344 16.6991 25.7591C16.6991 26.1945 16.5262 26.612 16.2183 26.9199C15.9105 27.2277 15.4929 27.4007 15.0575 27.4007ZM15.0575 20.8343C14.7329 20.8343 14.4155 20.738 14.1455 20.5577C13.8756 20.3773 13.6652 20.1209 13.5409 19.8209C13.4167 19.521 13.3842 19.1909 13.4475 18.8725C13.5108 18.554 13.6672 18.2615 13.8968 18.0319C14.1263 17.8024 14.4189 17.646 14.7373 17.5827C15.0557 17.5193 15.3858 17.5518 15.6858 17.6761C15.9857 17.8003 16.2421 18.0107 16.4225 18.2807C16.6029 18.5507 16.6991 18.8681 16.6991 19.1927C16.6991 19.6281 16.5262 20.0457 16.2183 20.3535C15.9105 20.6614 15.4929 20.8343 15.0575 20.8343ZM21.6239 20.8343C21.2992 20.8343 20.9819 20.738 20.7119 20.5577C20.4419 20.3773 20.2315 20.1209 20.1073 19.8209C19.983 19.521 19.9505 19.1909 20.0139 18.8725C20.0772 18.554 20.2336 18.2615 20.4631 18.0319C20.6927 17.8024 20.9852 17.646 21.3037 17.5827C21.6221 17.5193 21.9522 17.5518 22.2521 17.6761C22.5521 17.8003 22.8085 18.0107 22.9889 18.2807C23.1692 18.5507 23.2655 18.8681 23.2655 19.1927C23.2655 19.6281 23.0926 20.0457 22.7847 20.3535C22.4769 20.6614 22.0593 20.8343 21.6239 20.8343ZM26.5487 14.2679H3.56639V9.34316C3.56639 8.90779 3.73934 8.49024 4.0472 8.18238C4.35506 7.87452 4.77261 7.70157 5.20799 7.70157H6.84958V9.34316C6.84958 9.77854 7.02253 10.1961 7.33039 10.5039C7.63825 10.8118 8.0558 10.9848 8.49117 10.9848C8.92655 10.9848 9.3441 10.8118 9.65196 10.5039C9.95981 10.1961 10.1328 9.77854 10.1328 9.34316V7.70157H19.9823V9.34316C19.9823 9.77854 20.1553 10.1961 20.4631 10.5039C20.771 10.8118 21.1885 10.9848 21.6239 10.9848C22.0593 10.9848 22.4769 10.8118 22.7847 10.5039C23.0926 10.1961 23.2655 9.77854 23.2655 9.34316V7.70157H24.9071C25.3425 7.70157 25.76 7.87452 26.0679 8.18238C26.3758 8.49024 26.5487 8.90779 26.5487 9.34316V14.2679Z" fill="#2BAFFC"/>
</g>
<defs>
<clipPath id="clip0_99_1054">
<rect width="30" height="31.5464" fill="white" transform="translate(0.117188 0.850098)"/>
</clipPath>
</defs>
</svg>
