<svg width="31" height="32" viewBox="0 0 31 32" fill="none" xmlns="http://www.w3.org/2000/svg">
<g clip-path="url(#clip0_99_214)">
<path d="M24.9071 3.87199H23.2655V2.2304C23.2655 1.79502 23.0926 1.37748 22.7847 1.06962C22.4769 0.761759 22.0593 0.588806 21.6239 0.588806C21.1885 0.588806 20.771 0.761759 20.4631 1.06962C20.1553 1.37748 19.9823 1.79502 19.9823 2.2304V3.87199H10.1328V2.2304C10.1328 1.79502 9.95981 1.37748 9.65196 1.06962C9.3441 0.761759 8.92655 0.588806 8.49117 0.588806C8.0558 0.588806 7.63825 0.761759 7.33039 1.06962C7.02253 1.37748 6.84958 1.79502 6.84958 2.2304V3.87199H5.20799C3.90185 3.87199 2.64921 4.39085 1.72564 5.31443C0.802063 6.23801 0.283203 7.49064 0.283203 8.79678V26.8543C0.283203 28.1604 0.802063 29.4131 1.72564 30.3367C2.64921 31.2602 3.90185 31.7791 5.20799 31.7791H24.9071C26.2132 31.7791 27.4659 31.2602 28.3895 30.3367C29.313 29.4131 29.8319 28.1604 29.8319 26.8543V8.79678C29.8319 7.49064 29.313 6.23801 28.3895 5.31443C27.4659 4.39085 26.2132 3.87199 24.9071 3.87199ZM8.49117 26.8543C8.1665 26.8543 7.84911 26.758 7.57915 26.5777C7.30919 26.3973 7.09879 26.1409 6.97454 25.8409C6.85029 25.541 6.81778 25.2109 6.88112 24.8925C6.94446 24.574 7.10081 24.2815 7.33039 24.0519C7.55997 23.8224 7.85248 23.666 8.17091 23.6027C8.48935 23.5393 8.81942 23.5718 9.11938 23.6961C9.41935 23.8203 9.67573 24.0307 9.85611 24.3007C10.0365 24.5707 10.1328 24.888 10.1328 25.2127C10.1328 25.6481 9.95981 26.0656 9.65196 26.3735C9.3441 26.6814 8.92655 26.8543 8.49117 26.8543ZM8.49117 20.2879C8.1665 20.2879 7.84911 20.1917 7.57915 20.0113C7.30919 19.8309 7.09879 19.5745 6.97454 19.2746C6.85029 18.9746 6.81778 18.6445 6.88112 18.3261C6.94446 18.0076 7.10081 17.7151 7.33039 17.4856C7.55997 17.256 7.85248 17.0996 8.17091 17.0363C8.48935 16.9729 8.81942 17.0055 9.11938 17.1297C9.41935 17.254 9.67573 17.4644 9.85611 17.7343C10.0365 18.0043 10.1328 18.3217 10.1328 18.6463C10.1328 19.0817 9.95981 19.4993 9.65196 19.8071C9.3441 20.115 8.92655 20.2879 8.49117 20.2879ZM15.0575 26.8543C14.7329 26.8543 14.4155 26.758 14.1455 26.5777C13.8756 26.3973 13.6652 26.1409 13.5409 25.8409C13.4167 25.541 13.3842 25.2109 13.4475 24.8925C13.5108 24.574 13.6672 24.2815 13.8968 24.0519C14.1263 23.8224 14.4189 23.666 14.7373 23.6027C15.0557 23.5393 15.3858 23.5718 15.6858 23.6961C15.9857 23.8203 16.2421 24.0307 16.4225 24.3007C16.6029 24.5707 16.6991 24.888 16.6991 25.2127C16.6991 25.6481 16.5262 26.0656 16.2183 26.3735C15.9105 26.6814 15.4929 26.8543 15.0575 26.8543ZM15.0575 20.2879C14.7329 20.2879 14.4155 20.1917 14.1455 20.0113C13.8756 19.8309 13.6652 19.5745 13.5409 19.2746C13.4167 18.9746 13.3842 18.6445 13.4475 18.3261C13.5108 18.0076 13.6672 17.7151 13.8968 17.4856C14.1263 17.256 14.4189 17.0996 14.7373 17.0363C15.0557 16.9729 15.3858 17.0055 15.6858 17.1297C15.9857 17.254 16.2421 17.4644 16.4225 17.7343C16.6029 18.0043 16.6991 18.3217 16.6991 18.6463C16.6991 19.0817 16.5262 19.4993 16.2183 19.8071C15.9105 20.115 15.4929 20.2879 15.0575 20.2879ZM21.6239 20.2879C21.2992 20.2879 20.9819 20.1917 20.7119 20.0113C20.4419 19.8309 20.2315 19.5745 20.1073 19.2746C19.983 18.9746 19.9505 18.6445 20.0139 18.3261C20.0772 18.0076 20.2336 17.7151 20.4631 17.4856C20.6927 17.256 20.9852 17.0996 21.3037 17.0363C21.6221 16.9729 21.9522 17.0055 22.2521 17.1297C22.5521 17.254 22.8085 17.4644 22.9889 17.7343C23.1692 18.0043 23.2655 18.3217 23.2655 18.6463C23.2655 19.0817 23.0926 19.4993 22.7847 19.8071C22.4769 20.115 22.0593 20.2879 21.6239 20.2879ZM26.5487 13.7216H3.56639V8.79678C3.56639 8.3614 3.73934 7.94385 4.0472 7.63599C4.35506 7.32814 4.77261 7.15518 5.20799 7.15518H6.84958V8.79678C6.84958 9.23215 7.02253 9.6497 7.33039 9.95756C7.63825 10.2654 8.0558 10.4384 8.49117 10.4384C8.92655 10.4384 9.3441 10.2654 9.65196 9.95756C9.95981 9.6497 10.1328 9.23215 10.1328 8.79678V7.15518H19.9823V8.79678C19.9823 9.23215 20.1553 9.6497 20.4631 9.95756C20.771 10.2654 21.1885 10.4384 21.6239 10.4384C22.0593 10.4384 22.4769 10.2654 22.7847 9.95756C23.0926 9.6497 23.2655 9.23215 23.2655 8.79678V7.15518H24.9071C25.3425 7.15518 25.76 7.32814 26.0679 7.63599C26.3758 7.94385 26.5487 8.3614 26.5487 8.79678V13.7216Z" fill="#2E2E2E"/>
</g>
<defs>
<clipPath id="clip0_99_214">
<rect width="30" height="31.5464" fill="white" transform="translate(0.117188 0.303711)"/>
</clipPath>
</defs>
</svg>
