<svg width="31" height="36" viewBox="0 0 31 36" fill="none" xmlns="http://www.w3.org/2000/svg">
<rect width="31" height="36" fill="#F5F5F5"/>
<g clip-path="url(#clip0_0_1)">
<rect width="430" height="932" transform="translate(-40 -630)" fill="#2BAFFC"/>
<rect x="68.8369" y="-401.713" width="803.694" height="803.694" rx="122" transform="rotate(25 68.8369 -401.713)" fill="url(#paint0_linear_0_1)"/>
<g style="mix-blend-mode:color-burn" opacity="0.5">
<rect x="-659.557" y="-815.197" width="803.694" height="803.694" rx="106" transform="rotate(25 -659.557 -815.197)" fill="#2BAFFC"/>
</g>
<g clip-path="url(#clip1_0_1)">
<path d="M23.5377 14.3938H6.92236V10.24C6.92236 5.65137 10.6414 1.9323 15.2301 1.9323C19.8187 1.9323 23.5377 5.65137 23.5377 10.24V14.3938Z" stroke="black" stroke-width="2.76923" stroke-miterlimit="10" stroke-linecap="round" stroke-linejoin="round"/>
<path d="M27.6918 13.0092H2.76874C1.23874 13.0092 -0.000488281 14.2484 -0.000488281 15.7784V32.3938C-0.000488281 33.9238 1.23874 35.163 2.76874 35.163H27.6918C29.2218 35.163 30.4611 33.9238 30.4611 32.3938V15.7784C30.4611 14.2484 29.2218 13.0092 27.6918 13.0092ZM15.2303 26.8554C13.7003 26.8554 12.4611 25.6147 12.4611 24.0861C12.4611 22.5561 13.7003 21.3169 15.2303 21.3169C16.7603 21.3169 17.9995 22.5561 17.9995 24.0861C17.9995 25.6147 16.7603 26.8554 15.2303 26.8554ZM23.538 26.8554C22.008 26.8554 20.7687 25.6147 20.7687 24.0861C20.7687 22.5561 22.008 21.3169 23.538 21.3169C25.068 21.3169 26.3072 22.5561 26.3072 24.0861C26.3072 25.6147 25.068 26.8554 23.538 26.8554ZM6.92259 26.8554C5.39259 26.8554 4.15336 25.6147 4.15336 24.0861C4.15336 22.5561 5.39259 21.3169 6.92259 21.3169C8.45259 21.3169 9.69182 22.5561 9.69182 24.0861C9.69182 25.6147 8.45259 26.8554 6.92259 26.8554Z" fill="black"/>
</g>
</g>
<defs>
<linearGradient id="paint0_linear_0_1" x1="470.684" y1="-401.713" x2="470.684" y2="401.98" gradientUnits="userSpaceOnUse">
<stop stop-color="white"/>
<stop offset="1" stop-color="#E6F6FF"/>
</linearGradient>
<clipPath id="clip0_0_1">
<rect width="430" height="932" fill="white" transform="translate(-40 -630)"/>
</clipPath>
<clipPath id="clip1_0_1">
<rect width="30.4615" height="36" fill="white"/>
</clipPath>
</defs>
</svg>
