<svg width="13" height="23" viewBox="0 0 13 23" fill="none" xmlns="http://www.w3.org/2000/svg">
<path fill-rule="evenodd" clip-rule="evenodd" d="M0.866717 2.80981C0.866717 1.85249 1.64278 1.07642 2.60011 1.07642C3.55744 1.07642 4.33351 1.85249 4.33351 2.80981C4.33351 3.76714 3.55744 4.54321 2.60011 4.54321C1.64278 4.54321 0.866717 3.76714 0.866717 2.80981ZM7.80031 2.80981C7.80031 1.85249 8.57637 1.07642 9.53371 1.07642C10.4911 1.07642 11.2671 1.85249 11.2671 2.80981C11.2671 3.76714 10.4911 4.54321 9.53371 4.54321C8.57637 4.54321 7.80031 3.76715 7.80031 2.80981ZM0.866699 11.4768C0.866699 10.5195 1.64278 9.74341 2.6001 9.74341C3.55744 9.74341 4.3335 10.5195 4.3335 11.4768C4.3335 12.4341 3.55744 13.2102 2.6001 13.2102C1.64278 13.2102 0.866699 12.4341 0.866699 11.4768ZM7.80029 11.4768C7.80029 10.5195 8.57637 9.74341 9.53371 9.74341C10.4911 9.74341 11.2671 10.5195 11.2671 11.4768C11.2671 12.4341 10.4911 13.2102 9.53369 13.2102C8.57637 13.2102 7.80029 12.4341 7.80029 11.4768ZM0.866699 20.1438C0.866699 19.1864 1.64278 18.4104 2.6001 18.4104C3.55744 18.4104 4.3335 19.1864 4.3335 20.1438C4.3335 21.1012 3.55744 21.8772 2.6001 21.8772C1.64278 21.8772 0.866699 21.1012 0.866699 20.1438ZM7.80029 20.1438C7.80029 19.1864 8.57637 18.4104 9.53369 18.4104C10.4911 18.4104 11.2671 19.1864 11.2671 20.1438C11.2671 21.1012 10.4911 21.8772 9.53369 21.8772C8.57637 21.8772 7.80029 21.1012 7.80029 20.1438Z" fill="#B9B9B9"/>
</svg>
