<svg width="34" height="36" viewBox="0 0 34 36" fill="none" xmlns="http://www.w3.org/2000/svg">
<rect width="34" height="36" fill="#F5F5F5"/>
<g clip-path="url(#clip0_0_1)">
<rect width="430" height="932" transform="translate(-40 -414)" fill="#2BAFFC"/>
<rect x="68.8369" y="-185.713" width="803.694" height="803.694" rx="122" transform="rotate(25 68.8369 -185.713)" fill="url(#paint0_linear_0_1)"/>
<g style="mix-blend-mode:color-burn" opacity="0.5">
<rect x="-659.557" y="-599.197" width="803.694" height="803.694" rx="106" transform="rotate(25 -659.557 -599.197)" fill="#2BAFFC"/>
</g>
<path d="M16.4613 17.9319C18.9146 17.9319 21.0086 17.0639 22.7438 15.3286C24.4791 13.5933 25.347 11.4993 25.347 9.04629C25.347 6.59368 24.4791 4.49961 22.7438 2.76393C21.008 1.02873 18.9139 0.161133 16.4613 0.161133C14.0086 0.161133 11.9142 1.02873 10.179 2.76393C8.44344 4.49961 7.57568 6.5936 7.57568 9.04629C7.57568 11.4993 8.44344 13.5933 10.179 15.3286C11.9146 17.0639 14.0085 17.9319 16.4613 17.9319Z" fill="black"/>
<path d="M32.6235 26.6783C32.5383 25.7064 32.3539 24.642 32.0682 23.4849C31.7831 22.3281 31.4164 21.306 30.9693 20.4191C30.5217 19.5321 29.8971 18.7378 29.0947 18.0356C28.2927 17.3337 27.3668 16.8668 26.3181 16.6357C26.4417 16.9287 26.5422 17.2373 26.6193 17.5612C26.6964 17.8853 26.7508 18.2476 26.7812 18.6485C26.8115 19.0495 26.8317 19.3695 26.8389 19.6092C26.8465 19.8483 26.8465 20.2182 26.8389 20.7197C26.8317 21.2212 26.8273 21.5489 26.8273 21.7032C27.7375 22.2275 28.4586 22.9491 28.9906 23.8665C29.5228 24.7845 29.7893 25.7675 29.7893 26.817V28.8766C30.2824 29.3237 30.5293 29.8712 30.5293 30.5191C30.5293 31.1364 30.3132 31.6607 29.8814 32.0922C29.4496 32.5244 28.9256 32.7401 28.3083 32.7401C27.6909 32.7401 27.1664 32.5244 26.7346 32.0922C26.3027 31.6607 26.0872 31.1364 26.0872 30.5191C26.0872 29.8712 26.3341 29.3237 26.8273 28.8766V26.817C26.8273 26.0149 26.5338 25.3201 25.9478 24.7346C25.3617 24.1478 24.6675 23.8549 23.8654 23.8549C23.0631 23.8549 22.3685 24.1478 21.7825 24.7346C21.1965 25.3202 20.9033 26.0149 20.9033 26.817V28.8766C21.3967 29.3237 21.6436 29.8712 21.6436 30.5191C21.6436 31.1364 21.4277 31.6607 20.9957 32.0922C20.5638 32.5244 20.0396 32.7401 19.4219 32.7401C18.8052 32.7401 18.281 32.5244 17.8491 32.0922C17.4173 31.6607 17.2012 31.1364 17.2012 30.5191C17.2012 29.8712 17.4481 29.3237 17.9415 28.8766V26.817C17.9415 25.1817 18.5201 23.7856 19.6766 22.629C20.8337 21.4719 22.2294 20.8933 23.8646 20.8933V19.4122C23.8646 18.4562 23.6721 17.739 23.2866 17.2604C21.2503 18.8653 18.9749 19.6671 16.4603 19.6671C13.946 19.6671 11.6704 18.8652 9.63432 17.2604C9.24871 17.739 9.05573 18.4562 9.05573 19.4122V24.1095C9.93508 24.4185 10.6483 24.9582 11.1961 25.7292C11.744 26.5009 12.0177 27.3567 12.0177 28.298C12.0177 29.5317 11.586 30.5812 10.7221 31.4448C9.85817 32.3085 8.80911 32.7403 7.57494 32.7403C6.34102 32.7403 5.29212 32.3085 4.42809 31.4448C3.56438 30.5812 3.1324 29.5317 3.1324 28.298C3.1324 27.357 3.40253 26.5008 3.94246 25.7292C4.48231 24.9581 5.19981 24.4185 6.09439 24.1095V19.4122C6.09439 18.3636 6.26402 17.438 6.60336 16.6359C5.5543 16.8674 4.62892 17.3341 3.82664 18.0358C3.02453 18.7377 2.39983 19.532 1.95245 20.419C1.50508 21.3064 1.13867 22.3286 0.853306 23.4854C0.567943 24.642 0.383077 25.7064 0.29806 26.6783C0.213204 27.6502 0.170898 28.6608 0.170898 29.7097C0.170898 31.5763 0.734087 33.0418 1.86006 34.1057C2.98628 35.1703 4.48271 35.7022 6.3492 35.7022H26.5729C28.4392 35.7022 29.9355 35.1703 31.0618 34.1057C32.1885 33.0418 32.7513 31.5763 32.7513 29.7097C32.7513 28.6602 32.7083 27.6502 32.6235 26.6783Z" fill="black"/>
<path d="M6.09424 28.2981C6.09424 28.6991 6.24085 29.0463 6.53383 29.3393C6.82698 29.6327 7.17369 29.7791 7.57503 29.7791C7.97637 29.7791 8.32349 29.6327 8.61655 29.3393C8.9097 29.0464 9.05631 28.6992 9.05631 28.2981C9.05631 27.897 8.9097 27.5498 8.61655 27.2568C8.32325 26.964 7.97613 26.817 7.57503 26.817C7.17401 26.817 6.82706 26.9639 6.53383 27.2568C6.24085 27.5497 6.09424 27.897 6.09424 28.2981Z" fill="black"/>
</g>
<defs>
<linearGradient id="paint0_linear_0_1" x1="470.684" y1="-185.713" x2="470.684" y2="617.98" gradientUnits="userSpaceOnUse">
<stop stop-color="white"/>
<stop offset="1" stop-color="#E6F6FF"/>
</linearGradient>
<clipPath id="clip0_0_1">
<rect width="430" height="932" fill="white" transform="translate(-40 -414)"/>
</clipPath>
</defs>
</svg>
