<svg width="35" height="36" viewBox="0 0 35 36" fill="none" xmlns="http://www.w3.org/2000/svg">
<rect width="35" height="36" fill="#F5F5F5"/>
<g clip-path="url(#clip0_0_1)">
<rect width="430" height="932" transform="translate(-40 -486)" fill="#2BAFFC"/>
<rect x="68.8369" y="-257.713" width="803.694" height="803.694" rx="122" transform="rotate(25 68.8369 -257.713)" fill="url(#paint0_linear_0_1)"/>
<g style="mix-blend-mode:color-burn" opacity="0.5">
<rect x="-659.557" y="-671.197" width="803.694" height="803.694" rx="106" transform="rotate(25 -659.557 -671.197)" fill="#2BAFFC"/>
</g>
<path d="M17.2344 19.9927C24.2307 19.9927 27.5231 24.314 27.5231 24.314C30.1982 23.6967 31.8444 23.0793 32.4617 23.0793C33.2848 22.8736 33.9021 22.0505 33.6963 21.0216L31.8444 3.73658C31.8444 3.73658 26.0827 0.649963 17.2344 0.649963C8.3861 0.649963 2.62443 3.94235 2.62443 3.94235L0.772461 21.2274C0.772461 22.0505 1.18401 22.8736 2.00711 23.2851C2.62443 23.4909 4.06485 24.1082 6.73991 24.5198C6.94569 24.5198 10.2381 19.9927 17.2344 19.9927ZM11.0612 9.0867H15.1767V4.97122H19.2921V9.0867H23.4076V13.2022H19.2921V17.3177H15.1767V13.2022H11.0612V9.0867Z" fill="black"/>
<path d="M17.2349 19.3754C12.7078 19.3754 9.00391 23.0793 9.00391 27.6064C9.00391 32.1334 12.7078 35.8373 17.2349 35.8373C21.7619 35.8373 25.4658 32.1334 25.4658 27.6064C25.4658 23.0793 21.7619 19.3754 17.2349 19.3754ZM17.2349 29.6641C16.0002 29.6641 15.1771 28.841 15.1771 27.6064C15.1771 26.3717 16.0002 25.5486 17.2349 25.5486C18.4695 25.5486 19.2926 26.3717 19.2926 27.6064C19.2926 28.841 18.4695 29.6641 17.2349 29.6641Z" fill="black"/>
</g>
<defs>
<linearGradient id="paint0_linear_0_1" x1="470.684" y1="-257.713" x2="470.684" y2="545.98" gradientUnits="userSpaceOnUse">
<stop stop-color="white"/>
<stop offset="1" stop-color="#E6F6FF"/>
</linearGradient>
<clipPath id="clip0_0_1">
<rect width="430" height="932" fill="white" transform="translate(-40 -486)"/>
</clipPath>
</defs>
</svg>
