<svg width="36" height="36" viewBox="0 0 36 36" fill="none" xmlns="http://www.w3.org/2000/svg">
<rect width="36" height="36" fill="#F5F5F5"/>
<g clip-path="url(#clip0_0_1)">
<rect width="430" height="932" transform="translate(-40 -558)" fill="#2BAFFC"/>
<rect x="68.8369" y="-329.713" width="803.694" height="803.694" rx="122" transform="rotate(25 68.8369 -329.713)" fill="url(#paint0_linear_0_1)"/>
<g style="mix-blend-mode:color-burn" opacity="0.5">
<rect x="-659.557" y="-743.197" width="803.694" height="803.694" rx="106" transform="rotate(25 -659.557 -743.197)" fill="#2BAFFC"/>
</g>
<g clip-path="url(#clip1_0_1)">
<path d="M30 35.625H6C5.40326 35.625 4.83097 35.3879 4.40901 34.966C3.98705 34.544 3.75 33.9717 3.75 33.375V3.375C3.75 2.77826 3.98705 2.20597 4.40901 1.78401C4.83097 1.36205 5.40326 1.125 6 1.125H30C30.5967 1.125 31.169 1.36205 31.591 1.78401C32.0129 2.20597 32.25 2.77826 32.25 3.375V33.375C32.25 33.9717 32.0129 34.544 31.591 34.966C31.169 35.3879 30.5967 35.625 30 35.625ZM6.75 32.625H29.25V4.125H6.75V32.625Z" fill="black"/>
<path d="M14.25 9.75V12.75H21.75V9.75H14.25Z" fill="black"/>
<path d="M16.5 15H19.5V7.5H16.5V15Z" fill="black"/>
<path d="M22.5 22.125H13.5C13.1022 22.125 12.7206 21.967 12.4393 21.6857C12.158 21.4044 12 21.0228 12 20.625C12 20.2272 12.158 19.8456 12.4393 19.5643C12.7206 19.283 13.1022 19.125 13.5 19.125H22.5C22.8978 19.125 23.2794 19.283 23.5607 19.5643C23.842 19.8456 24 20.2272 24 20.625C24 21.0228 23.842 21.4044 23.5607 21.6857C23.2794 21.967 22.8978 22.125 22.5 22.125Z" fill="black"/>
<path d="M22.5 28.875H13.5C13.1022 28.875 12.7206 28.717 12.4393 28.4357C12.158 28.1544 12 27.7728 12 27.375C12 26.9772 12.158 26.5956 12.4393 26.3143C12.7206 26.033 13.1022 25.875 13.5 25.875H22.5C22.8978 25.875 23.2794 26.033 23.5607 26.3143C23.842 26.5956 24 26.9772 24 27.375C24 27.7728 23.842 28.1544 23.5607 28.4357C23.2794 28.717 22.8978 28.875 22.5 28.875Z" fill="black"/>
</g>
</g>
<defs>
<linearGradient id="paint0_linear_0_1" x1="470.684" y1="-329.713" x2="470.684" y2="473.98" gradientUnits="userSpaceOnUse">
<stop stop-color="white"/>
<stop offset="1" stop-color="#E6F6FF"/>
</linearGradient>
<clipPath id="clip0_0_1">
<rect width="430" height="932" fill="white" transform="translate(-40 -558)"/>
</clipPath>
<clipPath id="clip1_0_1">
<rect width="36" height="36" fill="white"/>
</clipPath>
</defs>
</svg>
