<svg width="41" height="29" viewBox="0 0 41 29" fill="none" xmlns="http://www.w3.org/2000/svg">
<g clip-path="url(#clip0_99_1077)">
<path d="M0.559692 5.1576C0.559692 2.70369 2.54897 0.714417 5.00288 0.714417H17.9907C20.4446 0.714417 22.4338 2.70369 22.4338 5.1576V8.91722H14.5728C11.3638 8.91722 8.7625 11.5186 8.7625 14.7275V19.8543H5.00288C2.54897 19.8543 0.559692 17.865 0.559692 15.4111V5.1576ZM4.31931 3.44869C3.75303 3.44869 3.29396 3.90776 3.29396 4.47404V5.1576C3.29396 5.72388 3.75303 6.18295 4.31931 6.18295C4.88559 6.18295 5.34466 5.72388 5.34466 5.1576V4.47404C5.34466 3.90776 4.88559 3.44869 4.31931 3.44869ZM5.34466 9.94257C5.34466 9.37626 4.88559 8.91722 4.31931 8.91722C3.75303 8.91722 3.29396 9.37626 3.29396 9.94257V10.6261C3.29396 11.1925 3.75303 11.6515 4.31931 11.6515C4.88559 11.6515 5.34466 11.1925 5.34466 10.6261V9.94257ZM18.6742 3.44869C18.1079 3.44869 17.6489 3.90776 17.6489 4.47404V5.1576C17.6489 5.72388 18.1079 6.18295 18.6742 6.18295C19.2405 6.18295 19.6996 5.72388 19.6996 5.1576V4.47404C19.6996 3.90776 19.2405 3.44869 18.6742 3.44869ZM5.34466 15.4111C5.34466 14.8448 4.88559 14.3858 4.31931 14.3858C3.75303 14.3858 3.29396 14.8448 3.29396 15.4111V16.0947C3.29396 16.661 3.75303 17.12 4.31931 17.12C4.88559 17.12 5.34466 16.661 5.34466 16.0947V15.4111ZM10.1296 14.7275C10.1296 12.2736 12.1189 10.2844 14.5728 10.2844H23.4592C25.9131 10.2844 27.9024 12.2736 27.9024 14.7275V23.6139C27.9024 24.4466 27.6733 25.2258 27.2749 25.8919L21.1409 20.0005C19.9584 18.8942 18.1206 18.8942 16.9381 20.0005L10.7858 25.9389C10.3696 25.2626 10.1296 24.4662 10.1296 23.6139V14.7275ZM22.0921 17.8036C23.0359 17.8036 23.801 17.0385 23.801 16.0947C23.801 15.1508 23.0359 14.3858 22.0921 14.3858C21.1482 14.3858 20.3831 15.1508 20.3831 16.0947C20.3831 17.0385 21.1482 17.8036 22.0921 17.8036ZM14.5728 28.0571C13.7143 28.0571 12.9126 27.8137 12.2331 27.3918L18.339 21.498C18.7331 21.1293 19.3458 21.1293 19.7399 21.498L25.8461 27.3622C25.1567 27.8021 24.3377 28.0571 23.4592 28.0571H14.5728Z" fill="#2BAFFC"/>
<path d="M31.0577 5.9726C26.4186 5.9726 22.6445 9.74662 22.6445 14.3857C22.6445 19.0248 26.4186 22.7989 31.0577 22.7989C35.6968 22.7989 39.4708 19.0248 39.4708 14.3857C39.4708 9.74662 35.6968 5.9726 31.0577 5.9726ZM34.5631 16.5584C34.5631 17.1537 34.0829 17.8912 32.9864 17.8912C32.007 17.8912 31.7602 17.2638 31.7602 16.8395C31.7602 16.3186 32.0743 15.7858 32.9878 15.7858C33.8151 15.7858 33.8627 15.5755 33.8627 15.1584V12.3063L28.9551 12.8517C28.9551 14.4509 28.9551 17.019 28.9551 17.2588C28.9544 17.8548 28.4741 18.5923 27.3777 18.5923C26.3982 18.5923 26.1514 17.9648 26.1514 17.5407C26.1514 17.0198 26.4655 16.4869 27.379 16.4869C28.2064 16.4869 28.254 16.2766 28.254 15.8594V11.2343C28.254 11.0023 28.4286 10.8073 28.6592 10.7814L34.0577 10.1813C34.3269 10.1518 34.5631 10.3635 34.5631 10.6348C34.5631 10.6348 34.5631 16.3221 34.5631 16.5584Z" fill="black"/>
</g>
<defs>
<clipPath id="clip0_99_1077">
<rect width="40" height="27.7966" fill="white" transform="translate(0.117188 0.271362)"/>
</clipPath>
</defs>
</svg>
