<svg width="41" height="29" viewBox="0 0 41 29" fill="none" xmlns="http://www.w3.org/2000/svg">
<g clip-path="url(#clip0_99_1058)">
<path d="M0.559692 5.61122C0.559692 3.15731 2.54897 1.16803 5.00288 1.16803H17.9907C20.4446 1.16803 22.4338 3.15731 22.4338 5.61122V9.37084H14.5728C11.3638 9.37084 8.7625 11.9722 8.7625 15.1812V20.3079H5.00288C2.54897 20.3079 0.559692 18.3186 0.559692 15.8647V5.61122ZM4.31931 3.9023C3.75303 3.9023 3.29396 4.36137 3.29396 4.92765V5.61122C3.29396 6.17749 3.75303 6.63657 4.31931 6.63657C4.88559 6.63657 5.34466 6.17749 5.34466 5.61122V4.92765C5.34466 4.36137 4.88559 3.9023 4.31931 3.9023ZM5.34466 10.3962C5.34466 9.82988 4.88559 9.37084 4.31931 9.37084C3.75303 9.37084 3.29396 9.82988 3.29396 10.3962V11.0798C3.29396 11.6461 3.75303 12.1051 4.31931 12.1051C4.88559 12.1051 5.34466 11.6461 5.34466 11.0798V10.3962ZM18.6742 3.9023C18.1079 3.9023 17.6489 4.36137 17.6489 4.92765V5.61122C17.6489 6.17749 18.1079 6.63657 18.6742 6.63657C19.2405 6.63657 19.6996 6.17749 19.6996 5.61122V4.92765C19.6996 4.36137 19.2405 3.9023 18.6742 3.9023ZM5.34466 15.8647C5.34466 15.2984 4.88559 14.8394 4.31931 14.8394C3.75303 14.8394 3.29396 15.2984 3.29396 15.8647V16.5483C3.29396 17.1146 3.75303 17.5736 4.31931 17.5736C4.88559 17.5736 5.34466 17.1146 5.34466 16.5483V15.8647ZM10.1296 15.1812C10.1296 12.7273 12.1189 10.738 14.5728 10.738H23.4592C25.9131 10.738 27.9024 12.7273 27.9024 15.1812V24.0675C27.9024 24.9002 27.6733 25.6794 27.2749 26.3455L21.1409 20.4541C19.9584 19.3478 18.1206 19.3478 16.9381 20.4541L10.7858 26.3925C10.3696 25.7162 10.1296 24.9198 10.1296 24.0675V15.1812ZM22.0921 18.2572C23.0359 18.2572 23.801 17.4921 23.801 16.5483C23.801 15.6044 23.0359 14.8394 22.0921 14.8394C21.1482 14.8394 20.3831 15.6044 20.3831 16.5483C20.3831 17.4921 21.1482 18.2572 22.0921 18.2572ZM14.5728 28.5107C13.7143 28.5107 12.9126 28.2673 12.2331 27.8455L18.339 21.9516C18.7331 21.5829 19.3458 21.5829 19.7399 21.9516L25.8461 27.8158C25.1567 28.2557 24.3377 28.5107 23.4592 28.5107H14.5728Z" fill="#2E2E2E"/>
<path d="M31.0577 6.42621C26.4186 6.42621 22.6445 10.2002 22.6445 14.8393C22.6445 19.4785 26.4186 23.2525 31.0577 23.2525C35.6968 23.2525 39.4708 19.4785 39.4708 14.8393C39.4708 10.2002 35.6968 6.42621 31.0577 6.42621ZM34.5631 17.012C34.5631 17.6073 34.0829 18.3448 32.9864 18.3448C32.007 18.3448 31.7602 17.7174 31.7602 17.2931C31.7602 16.7723 32.0743 16.2394 32.9878 16.2394C33.8151 16.2394 33.8627 16.0291 33.8627 15.612V12.7599L28.9551 13.3053C28.9551 14.9045 28.9551 17.4727 28.9551 17.7124C28.9544 18.3084 28.4741 19.0459 27.3777 19.0459C26.3982 19.0459 26.1514 18.4184 26.1514 17.9943C26.1514 17.4734 26.4655 16.9405 27.379 16.9405C28.2064 16.9405 28.254 16.7302 28.254 16.313V11.6879C28.254 11.4559 28.4286 11.2609 28.6592 11.2351L34.0577 10.6349C34.3269 10.6054 34.5631 10.8171 34.5631 11.0885C34.5631 11.0885 34.5631 16.7757 34.5631 17.012Z" fill="#2E2E2E"/>
</g>
<defs>
<clipPath id="clip0_99_1058">
<rect width="40" height="27.7966" fill="white" transform="translate(0.117188 0.724976)"/>
</clipPath>
</defs>
</svg>
