<svg width="38" height="26" viewBox="0 0 38 26" fill="none" xmlns="http://www.w3.org/2000/svg">
<g clip-path="url(#clip0_327_1074)">
<path d="M35.5448 10.9172H2.00309C0.910029 10.9172 0.0239258 11.8033 0.0239258 12.8964V13.1047C0.0239258 14.1978 0.910029 15.0839 2.00309 15.0839H35.5448C36.6378 15.0839 37.5239 14.1978 37.5239 13.1047V12.8964C37.5239 11.8033 36.6378 10.9172 35.5448 10.9172Z" fill="white" fill-opacity="0.8"/>
<path d="M35.5448 21.3335H2.00309C0.910029 21.3335 0.0239258 22.2196 0.0239258 23.3127V23.521C0.0239258 24.6141 0.910029 25.5002 2.00309 25.5002H35.5448C36.6378 25.5002 37.5239 24.6141 37.5239 23.521V23.3127C37.5239 22.2196 36.6378 21.3335 35.5448 21.3335Z" fill="white" fill-opacity="0.8"/>
<path d="M35.5448 0.5H2.00309C0.910029 0.5 0.0239258 1.3861 0.0239258 2.47917V2.6875C0.0239258 3.78056 0.910029 4.66667 2.00309 4.66667H35.5448C36.6378 4.66667 37.5239 3.78056 37.5239 2.6875V2.47917C37.5239 1.3861 36.6378 0.5 35.5448 0.5Z" fill="white" fill-opacity="0.8"/>
</g>
<defs>
<clipPath id="clip0_327_1074">
<rect width="37.5" height="25" fill="white" transform="translate(0.0229492 0.5)"/>
</clipPath>
</defs>
</svg>
