<svg width="22" height="26" viewBox="0 0 22 26" fill="none" xmlns="http://www.w3.org/2000/svg">
<g clip-path="url(#clip0_99_1227)">
<path d="M7.63178 3.6947C9.13705 2.87365 10.916 2.59996 12.5581 3.01049C13.2423 3.14733 14.0634 2.73681 14.2002 2.0526C14.337 1.36839 13.9265 0.547334 13.2423 0.410492C10.916 -0.273719 8.316 0.136808 6.26336 1.23154C3.25284 3.01049 1.47389 6.15786 1.47389 9.57891V17.1052C0.652837 17.7894 0.105469 18.7473 0.105469 19.8421C0.105469 21.7579 1.61073 23.2631 3.52652 23.2631H7.22126C7.76863 24.9052 9.27389 26 11.0528 26C12.8318 26 14.337 24.9052 14.8844 23.2631H18.5792C20.4949 23.2631 22.0002 21.7579 22.0002 19.8421C22.0002 18.7473 21.4528 17.7894 20.6318 17.1052V11.7684C20.6318 10.9473 20.0844 10.4 19.2634 10.4C18.4423 10.4 17.8949 10.9473 17.8949 11.7684V16.421H4.21073V9.57891C4.21073 7.11575 5.57915 4.92628 7.63178 3.6947ZM18.5792 19.1579C18.9897 19.1579 19.2634 19.4315 19.2634 19.8421C19.2634 20.2526 18.9897 20.5263 18.5792 20.5263H13.7897H8.316H3.52652C3.116 20.5263 2.84231 20.2526 2.84231 19.8421C2.84231 19.4315 3.116 19.1579 3.52652 19.1579H18.5792Z" fill="white"/>
<path d="M17.8943 9.579C20.1616 9.579 21.9996 7.74101 21.9996 5.47373C21.9996 3.20646 20.1616 1.36847 17.8943 1.36847C15.6271 1.36847 13.7891 3.20646 13.7891 5.47373C13.7891 7.74101 15.6271 9.579 17.8943 9.579Z" fill="#FF5858"/>
</g>
<defs>
<clipPath id="clip0_99_1227">
<rect width="21.8947" height="26" fill="white" transform="translate(0.105469)"/>
</clipPath>
</defs>
</svg>
