<svg width="31" height="30" viewBox="0 0 31 30" fill="none" xmlns="http://www.w3.org/2000/svg">
<rect x="0.607422" width="29.9998" height="30" rx="14.9999" fill="#2BAFFC"/>
<g clip-path="url(#clip0_341_796)">
<path d="M20.2028 17.7201C19.8769 17.5291 19.4764 17.5331 19.1521 17.7257L17.5099 18.7042C17.1422 18.9233 16.6831 18.8976 16.346 18.6344C15.7633 18.1792 14.825 17.4135 14.0087 16.5972C13.1923 15.7809 12.4266 14.8426 11.9715 14.2599C11.7082 13.9227 11.6825 13.4636 11.9017 13.096L12.8801 11.4538C13.0736 11.1295 13.0752 10.7257 12.8841 10.3999L10.4745 6.28382C10.241 5.8857 9.77703 5.68985 9.32834 5.79982C8.8925 5.90577 8.32662 6.16423 7.73345 6.75819C5.8761 8.61555 4.88963 11.7483 11.8744 18.7331C18.8591 25.7178 21.9911 24.7322 23.8493 22.874C24.444 22.2792 24.7017 21.7126 24.8084 21.2759C24.9168 20.828 24.7242 20.3673 24.3268 20.1345C23.3348 19.5542 21.1949 18.3013 20.2028 17.7201Z" fill="white"/>
</g>
<defs>
<clipPath id="clip0_341_796">
<rect width="18.4613" height="18.4615" fill="white" transform="translate(6.37695 5.76923)"/>
</clipPath>
</defs>
</svg>
