<svg width="31" height="31" viewBox="0 0 31 31" fill="none" xmlns="http://www.w3.org/2000/svg">
<g clip-path="url(#clip0_99_1082)">
<path d="M27.6747 18.1489L26.1851 17.2799C24.5713 16.2869 24.5713 13.9284 26.1851 12.9353L27.6747 12.0664C28.916 11.3216 29.2884 9.83199 28.5436 8.7148L27.3023 6.60455C26.5575 5.36323 25.0679 4.99083 23.9507 5.73563L22.4611 6.60455C20.8474 7.59761 18.7371 6.35629 18.7371 4.4943V2.75645C18.7371 1.39099 17.6199 0.273804 16.2545 0.273804H13.7718C12.4064 0.273804 11.2892 1.39099 11.2892 2.75645V4.37017C11.2892 6.23216 9.17894 7.47348 7.56522 6.48042L6.07563 5.73563C4.8343 4.99083 3.34472 5.48736 2.72405 6.60455L1.48273 8.7148C0.862069 9.95613 1.23447 11.4457 2.35166 12.1905L3.84124 13.0594C5.45497 13.9284 5.45497 16.411 3.84124 17.2799L2.35166 18.1489C1.11033 18.8937 0.737936 20.3832 1.48273 21.5004L2.72405 23.6107C3.46885 24.852 4.95844 25.2244 6.07563 24.4796L7.56522 23.7348C9.17894 22.7418 11.2892 23.9831 11.2892 25.8451V27.5829C11.2892 28.9484 12.4064 30.0656 13.7718 30.0656H16.2545C17.6199 30.0656 18.7371 28.9484 18.7371 27.5829V25.9692C18.7371 24.1072 20.8474 22.8659 22.4611 23.8589L23.9507 24.7279C25.192 25.4727 26.6816 24.9761 27.3023 23.8589L28.5436 21.7487C29.1642 20.3832 28.7918 18.8937 27.6747 18.1489ZM15.0132 20.135C12.2822 20.135 10.0479 17.9006 10.0479 15.1697C10.0479 12.4388 12.2822 10.2044 15.0132 10.2044C17.7441 10.2044 19.9785 12.4388 19.9785 15.1697C19.9785 17.9006 17.7441 20.135 15.0132 20.135Z" fill="#2E2E2E"/>
</g>
<defs>
<clipPath id="clip0_99_1082">
<rect width="30" height="29.7918" fill="white" transform="translate(0.117188 0.273804)"/>
</clipPath>
</defs>
</svg>
