<svg width="31" height="31" viewBox="0 0 31 31" fill="none" xmlns="http://www.w3.org/2000/svg">
<g clip-path="url(#clip0_99_1101)">
<path d="M27.6747 18.6952L26.1851 17.8263C24.5713 16.8333 24.5713 14.4747 26.1851 13.4817L27.6747 12.6128C28.916 11.868 29.2884 10.3784 28.5436 9.26119L27.3023 7.15094C26.5575 5.90962 25.0679 5.53722 23.9507 6.28201L22.4611 7.15094C20.8474 8.144 18.7371 6.90268 18.7371 5.04069V3.30284C18.7371 1.93738 17.6199 0.82019 16.2545 0.82019H13.7718C12.4064 0.82019 11.2892 1.93738 11.2892 3.30284V4.91656C11.2892 6.77854 9.17894 8.01987 7.56522 7.02681L6.07563 6.28201C4.8343 5.53722 3.34472 6.03375 2.72405 7.15094L1.48273 9.26119C0.862069 10.5025 1.23447 11.9921 2.35166 12.7369L3.84124 13.6058C5.45497 14.4747 5.45497 16.9574 3.84124 17.8263L2.35166 18.6952C1.11033 19.44 0.737936 20.9296 1.48273 22.0468L2.72405 24.1571C3.46885 25.3984 4.95844 25.7708 6.07563 25.026L7.56522 24.2812C9.17894 23.2881 11.2892 24.5295 11.2892 26.3915V28.1293C11.2892 29.4948 12.4064 30.6119 13.7718 30.6119H16.2545C17.6199 30.6119 18.7371 29.4948 18.7371 28.1293V26.5156C18.7371 24.6536 20.8474 23.4123 22.4611 24.4053L23.9507 25.2743C25.192 26.0191 26.6816 25.5225 27.3023 24.4053L28.5436 22.2951C29.1642 20.9296 28.7918 19.44 27.6747 18.6952ZM15.0132 20.6814C12.2822 20.6814 10.0479 18.447 10.0479 15.7161C10.0479 12.9852 12.2822 10.7508 15.0132 10.7508C17.7441 10.7508 19.9785 12.9852 19.9785 15.7161C19.9785 18.447 17.7441 20.6814 15.0132 20.6814Z" fill="#2BAFFC"/>
</g>
<defs>
<clipPath id="clip0_99_1101">
<rect width="30" height="29.7918" fill="white" transform="translate(0.117188 0.82019)"/>
</clipPath>
</defs>
</svg>
