<svg width="16" height="16" viewBox="0 0 16 16" fill="none" xmlns="http://www.w3.org/2000/svg">
<g clip-path="url(#clip0_292_925)">
<path d="M12.8542 5.63785C12.211 5.63785 11.6482 5.87905 11.2462 6.28106L5.53766 2.98458C5.61807 2.82377 5.61807 2.58257 5.61807 2.42176C5.61807 1.05493 4.57284 0.00970459 3.20601 0.00970459C1.83917 0.00970459 0.793945 1.05493 0.793945 2.42176C0.793945 3.7886 1.83917 4.83382 3.20601 4.83382C3.84922 4.83382 4.41204 4.59262 4.81405 4.19061L10.5226 7.48709C10.4422 7.64789 10.4422 7.8891 10.4422 8.0499C10.4422 8.21071 10.4422 8.45191 10.5226 8.61272L4.81405 11.9896C4.41204 11.5876 3.84922 11.3464 3.20601 11.3464C1.91957 11.3464 0.874347 12.3916 0.874347 13.678C0.874347 14.9645 1.91957 16.0097 3.20601 16.0097C4.49244 16.0097 5.53766 14.9645 5.53766 13.678C5.53766 13.5172 5.53766 13.3564 5.45726 13.1152L11.1658 9.73835C11.5678 10.1404 12.1306 10.3816 12.7738 10.3816C14.1407 10.3816 15.1859 9.33634 15.1859 7.9695C15.1859 6.60267 14.2211 5.63785 12.8542 5.63785Z" fill="white"/>
</g>
<defs>
<clipPath id="clip0_292_925">
<rect width="16" height="16" fill="white" transform="translate(-0.00976562 0.00964355)"/>
</clipPath>
</defs>
</svg>
