<svg width="33" height="26" viewBox="0 0 33 26" fill="none" xmlns="http://www.w3.org/2000/svg">
<rect width="33" height="26" fill="#F5F5F5"/>
<g clip-path="url(#clip0_0_1)">
<rect width="430" height="932" transform="translate(-40 -707)" fill="#2BAFFC"/>
<rect x="68.8369" y="-478.713" width="803.694" height="803.694" rx="122" transform="rotate(25 68.8369 -478.713)" fill="url(#paint0_linear_0_1)"/>
<g style="mix-blend-mode:color-burn" opacity="0.5">
<rect x="-659.557" y="-892.197" width="803.694" height="803.694" rx="106" transform="rotate(25 -659.557 -892.197)" fill="#2BAFFC"/>
</g>
<g clip-path="url(#clip1_0_1)">
<path d="M0 19.495L3.25 19.497C4.15137 19.497 4.875 18.7714 4.875 17.8705V6.51529H0V19.495ZM2.4375 16.2551C2.88184 16.2551 3.25 16.6166 3.25 17.0671C3.25 17.5111 2.88184 17.8791 2.4375 17.8791C1.99316 17.8791 1.625 17.5094 1.625 17.0676C1.625 16.6157 1.99316 16.2551 2.4375 16.2551ZM17.7125 3.25006C17.3092 3.25006 16.9173 3.40083 16.6197 3.67296L11.6238 8.24186C11.6187 8.25201 11.6188 8.26217 11.6086 8.26217C10.7656 9.05435 10.7809 10.3188 11.502 11.1059C12.1494 11.7712 13.5017 12.0007 14.3523 11.2456C14.3609 11.2379 14.366 11.2379 14.3711 11.2329L18.4275 7.52076C18.7576 7.22262 19.2781 7.24167 19.5762 7.57154C19.8809 7.90142 19.8555 8.41553 19.5254 8.72021L18.199 9.93236L25.5938 15.9301C25.7397 16.0569 25.873 16.1838 25.9937 16.3233V6.45436C23.9126 4.37436 21.0943 3.21045 18.153 3.21045L17.7125 3.25006ZM16.9914 11.0399L15.468 12.4359C13.9572 13.8126 11.6467 13.6795 10.2984 12.2139C8.9375 10.7251 9.04414 8.41451 10.527 7.05357L14.6809 3.25006H14.3457C11.4105 3.25006 8.58711 4.42209 6.51016 6.49498L6.5 17.8649L7.42676 17.8668L12.0225 22.0217C13.4189 23.1577 15.4629 22.9419 16.5928 21.5522L17.5129 22.3261C18.3193 22.9405 19.5127 22.8593 20.1729 22.0533L21.7664 20.0932L22.0393 20.3216C22.7375 20.8802 23.7597 20.7787 24.3244 20.0805L24.8088 19.4823C25.3735 18.784 25.2676 17.7669 24.5704 17.2007L16.9914 11.0399ZM27.625 6.52037V17.8751C27.625 18.7698 28.3486 19.5026 29.2043 19.5026L32.5 19.5001V6.50514L27.625 6.52037ZM30.0625 17.8751C29.6182 17.8751 29.25 17.5071 29.25 17.0631C29.25 16.6124 29.6182 16.2511 30.0625 16.2511C30.5068 16.2511 30.875 16.6157 30.875 17.0676C30.875 17.5094 30.5094 17.8751 30.0625 17.8751Z" fill="black"/>
</g>
</g>
<defs>
<linearGradient id="paint0_linear_0_1" x1="470.684" y1="-478.713" x2="470.684" y2="324.98" gradientUnits="userSpaceOnUse">
<stop stop-color="white"/>
<stop offset="1" stop-color="#E6F6FF"/>
</linearGradient>
<clipPath id="clip0_0_1">
<rect width="430" height="932" fill="white" transform="translate(-40 -707)"/>
</clipPath>
<clipPath id="clip1_0_1">
<rect width="32.5" height="26" fill="white"/>
</clipPath>
</defs>
</svg>
