<svg width="31" height="29" viewBox="0 0 31 29" fill="none" xmlns="http://www.w3.org/2000/svg">
<g clip-path="url(#clip0_99_1049)">
<path d="M26.7606 0.598267H3.47312C1.86531 0.598267 0.557495 1.90608 0.557495 3.51389V20.5389C0.557495 22.1467 1.86531 23.4545 3.47312 23.4545H11.7981C11.6153 24.153 11.1278 24.842 10.42 25.5311H8.72312C7.86531 25.5311 7.16218 26.2295 7.16218 27.092C7.16218 27.9498 7.86062 28.653 8.72312 28.653H21.5106C22.3684 28.653 23.0716 27.9545 23.0716 27.092C23.0716 26.2342 22.3731 25.5311 21.5106 25.5311H19.6778C18.8762 24.8889 18.4216 24.1998 18.3137 23.4545H26.7606C28.3684 23.4545 29.6762 22.1467 29.6762 20.5389V3.51389C29.6762 1.90608 28.3684 0.598267 26.7606 0.598267ZM3.47312 1.53577H26.7606C27.8528 1.53577 28.7387 2.4217 28.7387 3.51389V17.5389H1.495V3.51389C1.495 2.4217 2.38093 1.53577 3.47312 1.53577ZM14.2309 20.4826C14.2309 19.9905 14.6294 19.5967 15.1169 19.5967C15.6091 19.5967 16.0028 19.9951 16.0028 20.4826C16.0028 20.9701 15.6044 21.3686 15.1169 21.3686C14.6247 21.3733 14.2309 20.9701 14.2309 20.4826Z" fill="#2E2E2E"/>
<path d="M7.52734 11.2202H9.60859C9.79141 11.2202 9.95547 11.117 10.0352 10.9483L11.4555 7.91547L13.3211 15.2608C13.3727 15.467 13.5602 15.6123 13.7758 15.6123C13.7805 15.6123 13.7805 15.6123 13.7852 15.6123C14.0008 15.6077 14.1883 15.453 14.2352 15.242L16.4055 5.02328L18.6461 12.6639C18.707 12.8655 18.8898 13.0014 19.0961 13.0014C19.3023 13.0014 19.4852 12.8655 19.5461 12.6639L20.7414 8.60922H22.7852C23.043 8.60922 23.2539 8.39828 23.2539 8.14047C23.2539 7.88265 23.043 7.67172 22.7852 7.67172H20.3945C20.1883 7.67172 20.0055 7.80765 19.9445 8.00922L19.0961 10.878L16.7758 2.97953C16.7148 2.77328 16.5227 2.64203 16.307 2.64203C16.0914 2.6514 15.9086 2.8014 15.8664 3.01234L13.7289 13.0811L12.0367 6.41547C11.9898 6.22328 11.8258 6.08265 11.6289 6.0639C11.4367 6.04515 11.2445 6.15297 11.1602 6.33109L9.30859 10.2827H7.52734C7.26953 10.2827 7.05859 10.4936 7.05859 10.7514C7.05859 11.0092 7.26953 11.2202 7.52734 11.2202Z" fill="#2E2E2E"/>
</g>
<defs>
<clipPath id="clip0_99_1049">
<rect width="30" height="28.125" fill="white" transform="translate(0.117188 0.560791)"/>
</clipPath>
</defs>
</svg>
