<svg width="31" height="29" viewBox="0 0 31 29" fill="none" xmlns="http://www.w3.org/2000/svg">
<g clip-path="url(#clip0_99_209)">
<path d="M26.7606 0.0518799H3.47312C1.86531 0.0518799 0.557495 1.35969 0.557495 2.96751V19.9925C0.557495 21.6003 1.86531 22.9081 3.47312 22.9081H11.7981C11.6153 23.6066 11.1278 24.2956 10.42 24.9847H8.72312C7.86531 24.9847 7.16218 25.6831 7.16218 26.5456C7.16218 27.4034 7.86062 28.1066 8.72312 28.1066H21.5106C22.3684 28.1066 23.0716 27.4081 23.0716 26.5456C23.0716 25.6878 22.3731 24.9847 21.5106 24.9847H19.6778C18.8762 24.3425 18.4216 23.6534 18.3137 22.9081H26.7606C28.3684 22.9081 29.6762 21.6003 29.6762 19.9925V2.96751C29.6762 1.35969 28.3684 0.0518799 26.7606 0.0518799ZM3.47312 0.98938H26.7606C27.8528 0.98938 28.7387 1.87532 28.7387 2.96751V16.9925H1.495V2.96751C1.495 1.87532 2.38093 0.98938 3.47312 0.98938ZM14.2309 19.9363C14.2309 19.4441 14.6294 19.0503 15.1169 19.0503C15.6091 19.0503 16.0028 19.4488 16.0028 19.9363C16.0028 20.4238 15.6044 20.8222 15.1169 20.8222C14.6247 20.8269 14.2309 20.4238 14.2309 19.9363Z" fill="#2BAFFC"/>
<path d="M7.52734 10.6738H9.60859C9.79141 10.6738 9.95547 10.5706 10.0352 10.4019L11.4555 7.36908L13.3211 14.7144C13.3727 14.9206 13.5602 15.066 13.7758 15.066C13.7805 15.066 13.7805 15.066 13.7852 15.066C14.0008 15.0613 14.1883 14.9066 14.2352 14.6956L16.4055 4.47689L18.6461 12.1175C18.707 12.3191 18.8898 12.455 19.0961 12.455C19.3023 12.455 19.4852 12.3191 19.5461 12.1175L20.7414 8.06283H22.7852C23.043 8.06283 23.2539 7.85189 23.2539 7.59408C23.2539 7.33627 23.043 7.12533 22.7852 7.12533H20.3945C20.1883 7.12533 20.0055 7.26127 19.9445 7.46283L19.0961 10.3316L16.7758 2.43314C16.7148 2.22689 16.5227 2.09564 16.307 2.09564C16.0914 2.10502 15.9086 2.25502 15.8664 2.46595L13.7289 12.5347L12.0367 5.86908C11.9898 5.67689 11.8258 5.53627 11.6289 5.51752C11.4367 5.49877 11.2445 5.60658 11.1602 5.7847L9.30859 9.73627H7.52734C7.26953 9.73627 7.05859 9.9472 7.05859 10.205C7.05859 10.4628 7.26953 10.6738 7.52734 10.6738Z" fill="#2BAFFC"/>
</g>
<defs>
<clipPath id="clip0_99_209">
<rect width="30" height="28.125" fill="white" transform="translate(0.117188 0.0144043)"/>
</clipPath>
</defs>
</svg>
