<svg width="92" height="38" viewBox="0 0 92 38" fill="none" xmlns="http://www.w3.org/2000/svg">
<g opacity="0.2" clip-path="url(#clip0_327_1056)">
<path d="M80.9939 31.1794C80.5002 31.1794 80.024 30.9137 79.7785 30.4469C79.4229 29.7761 79.6805 28.9457 80.3513 28.5915C85.6626 25.7849 88.5886 22.4122 88.5886 19.0958C88.5886 10.2535 69.0861 2.78222 46.0016 2.78222C22.9171 2.78222 3.41454 10.2535 3.41454 19.0958C3.41454 22.4095 6.34455 25.7809 11.6626 28.5915C12.3333 28.9457 12.5909 29.7761 12.2354 30.4469C11.8826 31.119 11.0508 31.3766 10.38 31.0197C4.02496 27.6644 0.666992 23.5404 0.666992 19.0958C0.666992 8.40745 20.58 0.034668 46.0016 0.034668C71.4231 0.034668 91.3362 8.40745 91.3362 19.0958C91.3362 23.5445 87.9809 27.6671 81.6339 31.0197C81.4299 31.1284 81.2099 31.1794 80.9939 31.1794Z" fill="black"/>
<path d="M5.31793 32.6699C4.70886 32.6699 4.1521 32.2607 3.98977 31.6436C3.79792 30.9097 4.23796 30.1585 4.9718 29.9666L9.34803 28.8236L8.22513 24.4715C8.03463 23.7363 8.47601 22.9877 9.21119 22.7986C9.94101 22.6027 10.6936 23.0494 10.8841 23.7846L12.3505 29.4622C12.541 30.1947 12.1009 30.9433 11.3684 31.1351L5.66674 32.6256C5.55002 32.6551 5.43331 32.6699 5.31793 32.6699ZM25.2777 32.9149L28.0625 32.5774C28.1518 33.2866 28.3911 33.8293 28.7792 34.2055C29.1688 34.5802 29.6401 34.769 30.1932 34.769C30.7865 34.769 31.286 34.543 31.6934 34.0925C32.0994 33.642 32.3016 33.0353 32.3016 32.2696C32.3016 31.547 32.1068 30.9731 31.7187 30.5493C31.3292 30.127 30.8549 29.9159 30.2958 29.9159C29.9271 29.9159 29.487 29.9873 28.974 30.13L29.2922 27.7852C30.0698 27.8061 30.6631 27.6366 31.0734 27.2782C31.4823 26.9199 31.6875 26.4441 31.6875 25.8509C31.6875 25.3453 31.5373 24.9424 31.237 24.642C30.9366 24.3417 30.5367 24.1915 30.0386 24.1915C29.5479 24.1915 29.1286 24.3625 28.7792 24.703C28.4313 25.045 28.2202 25.5431 28.1443 26.1988L25.4933 25.7483C25.6776 24.8398 25.9557 24.1142 26.3274 23.5715C26.6991 23.0288 27.218 22.6036 27.8841 22.2928C28.5487 21.9821 29.2952 21.8259 30.1204 21.8259C31.5343 21.8259 32.6673 22.2765 33.5208 23.1775C34.2241 23.915 34.575 24.7476 34.575 25.6769C34.575 26.9942 33.8553 28.0455 32.4146 28.8305C33.274 29.0149 33.9624 29.4267 34.4783 30.0691C34.9928 30.7099 35.2515 31.4845 35.2515 32.393C35.2515 33.7104 34.7697 34.8329 33.8077 35.7622C32.8443 36.69 31.6474 37.1539 30.2125 37.1539C28.855 37.1539 27.728 36.7629 26.8344 35.9823C25.9393 35.2002 25.4219 34.1787 25.2777 32.9149ZM46.7909 25.5639L44.0061 25.8702C43.9377 25.2977 43.7607 24.874 43.4738 24.6004C43.1868 24.3283 42.8151 24.1915 42.3571 24.1915C41.749 24.1915 41.2361 24.4651 40.8168 25.0108C40.396 25.5565 40.1313 26.6939 40.0228 28.4201C40.7395 27.5741 41.6301 27.1504 42.6947 27.1504C43.896 27.1504 44.9249 27.6083 45.7829 28.5227C46.6393 29.4371 47.0675 30.6177 47.0675 32.0659C47.0675 33.6018 46.617 34.8329 45.716 35.7622C44.8149 36.69 43.6581 37.1539 42.2441 37.1539C40.729 37.1539 39.4831 36.5651 38.5077 35.3875C37.5308 34.2099 37.0431 32.28 37.0431 29.5977C37.0431 26.847 37.5516 24.8636 38.5686 23.6488C39.5857 22.4341 40.9075 21.8259 42.5311 21.8259C43.6715 21.8259 44.6157 22.1456 45.3621 22.7835C46.11 23.4213 46.5858 24.3491 46.7909 25.5639ZM40.2681 31.8399C40.2681 32.7751 40.4837 33.4977 40.9134 34.0062C41.3431 34.5147 41.8353 34.769 42.3884 34.769C42.9207 34.769 43.3637 34.5608 43.7191 34.1445C44.0745 33.7282 44.2514 33.0442 44.2514 32.0956C44.2514 31.1203 44.0611 30.4051 43.6775 29.9516C43.2954 29.4966 42.8181 29.2706 42.2441 29.2706C41.6925 29.2706 41.2242 29.4862 40.842 29.9204C40.4599 30.3545 40.2681 30.9939 40.2681 31.8399ZM53.568 21.8259C55.0222 21.8259 56.1581 22.3449 56.9774 23.3827C57.9542 24.6108 58.4419 26.6493 58.4419 29.4951C58.4419 32.335 57.9498 34.3765 56.967 35.618C56.1551 36.6424 55.0222 37.1539 53.568 37.1539C52.1079 37.1539 50.9303 36.5934 50.0353 35.4693C49.1417 34.3467 48.6941 32.3454 48.6941 29.4654C48.6941 26.6389 49.1863 24.6049 50.1691 23.3619C50.9809 22.3389 52.1139 21.8259 53.568 21.8259ZM53.568 24.2123C53.2201 24.2123 52.9093 24.3224 52.6358 24.5454C52.3637 24.7669 52.151 25.1639 52.0024 25.7379C51.8031 26.4813 51.705 27.7347 51.705 29.4951C51.705 31.2571 51.7927 32.4659 51.9711 33.1245C52.1481 33.7832 52.3726 34.2218 52.6417 34.4404C52.9108 34.659 53.2201 34.769 53.568 34.769C53.9159 34.769 54.2267 34.6575 54.5003 34.4359C54.7724 34.2144 54.985 33.8159 55.1352 33.2435C55.3329 32.506 55.431 31.2571 55.431 29.4951C55.431 27.7347 55.3433 26.5244 55.1649 25.8657C54.988 25.207 54.7649 24.7669 54.4943 24.5454C54.2252 24.3224 53.9159 24.2123 53.568 24.2123ZM63.9784 23.2212C61.7058 23.2212 59.8571 21.3725 59.8571 19.0998C59.8571 16.8272 61.7058 14.9785 63.9784 14.9785C66.251 14.9785 68.0997 16.8272 68.0997 19.0998C68.0997 21.3725 66.251 23.2212 63.9784 23.2212ZM63.9784 17.7261C63.2204 17.7261 62.6046 18.3418 62.6046 19.0998C62.6046 19.8578 63.2204 20.4736 63.9784 20.4736C64.7364 20.4736 65.3522 19.8578 65.3522 19.0998C65.3522 18.3418 64.7364 17.7261 63.9784 17.7261Z" fill="black"/>
</g>
<defs>
<clipPath id="clip0_327_1056">
<rect width="90.9053" height="37.1885" fill="white" transform="translate(0.548828)"/>
</clipPath>
</defs>
</svg>
