<svg width="74" height="30" viewBox="0 0 74 30" fill="none" xmlns="http://www.w3.org/2000/svg">
<g clip-path="url(#clip0_327_1060)">
<path d="M65.5381 25.1525C65.1398 25.1525 64.7556 24.9382 64.5575 24.5616C64.2707 24.0205 64.4785 23.3506 65.0197 23.0649C69.3043 20.8008 71.6647 18.08 71.6647 15.4047C71.6647 8.27158 55.932 2.24453 37.3097 2.24453C18.6874 2.24453 2.95473 8.27158 2.95473 15.4047C2.95473 18.0779 5.31837 20.7976 9.60841 23.0649C10.1495 23.3506 10.3573 24.0205 10.0705 24.5616C9.7859 25.1038 9.1149 25.3116 8.57378 25.0237C3.44716 22.317 0.738281 18.9902 0.738281 15.4047C0.738281 6.78241 16.8021 0.0280762 37.3097 0.0280762C57.8173 0.0280762 73.8811 6.78241 73.8811 15.4047C73.8811 18.9934 71.1744 22.3192 66.0543 25.0237C65.8898 25.1114 65.7123 25.1525 65.5381 25.1525Z" fill="white" fill-opacity="0.8"/>
<path d="M4.4905 26.3549C3.99916 26.3549 3.55002 26.0248 3.41907 25.527C3.26431 24.935 3.61929 24.3289 4.21128 24.1742L7.74158 23.2521L6.83574 19.7413C6.68206 19.1482 7.03812 18.5443 7.63119 18.3917C8.21994 18.2337 8.82708 18.5941 8.98076 19.1871L10.1637 23.7672C10.3173 24.3581 9.96236 24.962 9.37145 25.1168L4.77188 26.3192C4.67773 26.343 4.58357 26.3549 4.4905 26.3549ZM20.592 26.5525L22.8386 26.2803C22.9106 26.8524 23.1037 27.2902 23.4167 27.5937C23.731 27.8959 24.1112 28.0482 24.5574 28.0482C25.036 28.0482 25.439 27.8659 25.7676 27.5025C26.0951 27.1391 26.2582 26.6497 26.2582 26.032C26.2582 25.449 26.1011 24.9861 25.788 24.6442C25.4738 24.3036 25.0912 24.1333 24.6402 24.1333C24.3427 24.1333 23.9877 24.1908 23.5739 24.306L23.8305 22.4145C24.4578 22.4312 24.9364 22.2945 25.2675 22.0054C25.5973 21.7164 25.7628 21.3326 25.7628 20.854C25.7628 20.4462 25.6417 20.1211 25.3994 19.8788C25.1571 19.6365 24.8345 19.5154 24.4327 19.5154C24.0368 19.5154 23.6986 19.6533 23.4167 19.928C23.1361 20.2039 22.9657 20.6057 22.9046 21.1346L20.766 20.7712C20.9147 20.0384 21.139 19.453 21.4388 19.0152C21.7387 18.5774 22.1573 18.2344 22.6947 17.9837C23.2308 17.733 23.8329 17.6071 24.4986 17.6071C25.6393 17.6071 26.5533 17.9705 27.2418 18.6974C27.8091 19.2923 28.0922 19.964 28.0922 20.7136C28.0922 21.7763 27.5116 22.6244 26.3494 23.2577C27.0426 23.4064 27.598 23.7386 28.0142 24.2568C28.4292 24.7738 28.6379 25.3987 28.6379 26.1315C28.6379 27.1942 28.2493 28.0998 27.4732 28.8495C26.696 29.5979 25.7305 29.9722 24.573 29.9722C23.4779 29.9722 22.5687 29.6567 21.8479 29.027C21.1258 28.3961 20.7084 27.5721 20.592 26.5525ZM37.9468 20.6225L35.7002 20.8696C35.6451 20.4078 35.5023 20.0659 35.2708 19.8452C35.0393 19.6257 34.7395 19.5154 34.3701 19.5154C33.8795 19.5154 33.4657 19.7361 33.1274 20.1763C32.788 20.6165 32.5745 21.5341 32.4869 22.9266C33.0651 22.2441 33.7835 21.9023 34.6423 21.9023C35.6115 21.9023 36.4415 22.2717 37.1336 23.0094C37.8245 23.747 38.1699 24.6994 38.1699 25.8677C38.1699 27.1067 37.8065 28.0998 37.0796 28.8495C36.3527 29.5979 35.4196 29.9722 34.2789 29.9722C33.0567 29.9722 32.0515 29.4972 31.2647 28.5472C30.4767 27.5972 30.0832 26.0404 30.0832 23.8766C30.0832 21.6576 30.4935 20.0575 31.3139 19.0776C32.1343 18.0977 33.2006 17.6071 34.5104 17.6071C35.4304 17.6071 36.192 17.865 36.7941 18.3795C37.3975 18.8941 37.7813 19.6425 37.9468 20.6225ZM32.6848 25.6853C32.6848 26.4398 32.8588 27.0227 33.2054 27.4329C33.552 27.8431 33.9491 28.0482 34.3952 28.0482C34.8246 28.0482 35.1821 27.8803 35.4687 27.5445C35.7554 27.2086 35.8981 26.6569 35.8981 25.8916C35.8981 25.1048 35.7446 24.5279 35.4352 24.162C35.1269 23.795 34.7419 23.6127 34.2789 23.6127C33.8339 23.6127 33.4561 23.7866 33.1478 24.1369C32.8396 24.4871 32.6848 25.0029 32.6848 25.6853ZM43.4139 17.6071C44.5869 17.6071 45.5033 18.0257 46.1642 18.8629C46.9522 19.8536 47.3456 21.4981 47.3456 23.7938C47.3456 26.0848 46.9486 27.7316 46.1558 28.7331C45.5009 29.5595 44.5869 29.9722 43.4139 29.9722C42.236 29.9722 41.2861 29.52 40.564 28.6132C39.8431 27.7076 39.4821 26.0931 39.4821 23.7698C39.4821 21.4897 39.8791 19.8488 40.6719 18.8461C41.3268 18.0209 42.2408 17.6071 43.4139 17.6071ZM43.4139 19.5322C43.1332 19.5322 42.8825 19.6209 42.6618 19.8009C42.4423 19.9796 42.2708 20.2998 42.1509 20.7628C41.9901 21.3625 41.911 22.3737 41.911 23.7938C41.911 25.2152 41.9817 26.1903 42.1257 26.7217C42.2684 27.253 42.4495 27.6068 42.6666 27.7832C42.8837 27.9595 43.1332 28.0482 43.4139 28.0482C43.6945 28.0482 43.9452 27.9583 44.1659 27.7796C44.3854 27.6009 44.5569 27.2794 44.6781 26.8176C44.8376 26.2227 44.9168 25.2152 44.9168 23.7938C44.9168 22.3737 44.846 21.3973 44.7021 20.866C44.5593 20.3346 44.3794 19.9796 44.1611 19.8009C43.944 19.6209 43.6945 19.5322 43.4139 19.5322ZM51.8119 18.7326C49.9786 18.7326 48.4873 17.2413 48.4873 15.4079C48.4873 13.5746 49.9786 12.0833 51.8119 12.0833C53.6453 12.0833 55.1366 13.5746 55.1366 15.4079C55.1366 17.2413 53.6453 18.7326 51.8119 18.7326ZM51.8119 14.2997C51.2005 14.2997 50.7037 14.7965 50.7037 15.4079C50.7037 16.0194 51.2005 16.5162 51.8119 16.5162C52.4234 16.5162 52.9202 16.0194 52.9202 15.4079C52.9202 14.7965 52.4234 14.2997 51.8119 14.2997Z" fill="white" fill-opacity="0.8"/>
</g>
<defs>
<clipPath id="clip0_327_1060">
<rect width="73.3333" height="30" fill="white" transform="translate(0.643555)"/>
</clipPath>
</defs>
</svg>
